<svg width="215" height="141" viewBox="0 0 215 141" fill="none" xmlns="http://www.w3.org/2000/svg">
<path d="M2.496 86.832C2.784 86.832 3.056 86.968 3.312 87.24C3.568 87.512 3.696 87.8 3.696 88.104C3.696 88.392 3.552 88.688 3.264 88.992C2.992 89.296 2.704 89.448 2.4 89.448C2.096 89.448 1.816 89.32 1.56 89.064C1.32 88.808 1.2 88.48 1.2 88.08C1.2 87.312 1.616 86.896 2.448 86.832C2.464 86.832 2.48 86.832 2.496 86.832ZM3.504 99.408L3.528 101.088C3.528 101.392 3.408 101.648 3.168 101.856C2.928 102.048 2.672 102.144 2.4 102.144C2 102.144 1.792 101.944 1.776 101.544C1.568 96.44 1.464 93.616 1.464 93.072C1.464 92.528 1.488 91.864 1.536 91.08C1.568 90.792 1.752 90.648 2.088 90.648C2.936 90.648 3.416 90.992 3.528 91.68C3.576 92.032 3.6 92.312 3.6 92.52L3.504 94.032V99.408ZM6.68719 93.84C6.68719 92.896 7.02319 92.144 7.69519 91.584C8.36719 91.024 9.14319 90.744 10.0232 90.744C10.9192 90.744 11.7752 90.904 12.5912 91.224C13.4072 91.544 13.8152 91.968 13.8152 92.496C13.8152 92.768 13.7112 92.984 13.5032 93.144C13.2952 93.304 13.1112 93.384 12.9512 93.384C12.8072 93.384 12.6872 93.384 12.5912 93.384C12.5112 93.368 12.1912 93.216 11.6312 92.928C11.0872 92.64 10.5832 92.496 10.1192 92.496C9.65519 92.496 9.25519 92.616 8.91919 92.856C8.59919 93.08 8.43919 93.416 8.43919 93.864C8.43919 94.312 8.62319 94.664 8.99119 94.92C9.37519 95.176 10.0392 95.4 10.9832 95.592C11.9272 95.768 12.6472 96.024 13.1432 96.36C13.6552 96.696 13.9112 97.32 13.9112 98.232C13.9112 99.56 13.5592 100.504 12.8552 101.064C12.1672 101.608 11.3272 101.88 10.3352 101.88C9.34319 101.88 8.49519 101.744 7.79119 101.472C7.10319 101.2 6.75919 100.792 6.75919 100.248C6.75919 99.624 7.07119 99.312 7.69519 99.312C7.85519 99.312 8.20719 99.424 8.75119 99.648C9.29519 99.872 9.83119 99.984 10.3592 99.984C10.9032 99.984 11.3112 99.816 11.5832 99.48C11.8712 99.128 12.0152 98.728 12.0152 98.28C12.0152 97.832 11.8312 97.512 11.4632 97.32C11.0952 97.112 10.5352 96.944 9.78319 96.816C9.03119 96.688 8.47919 96.552 8.12719 96.408C7.16719 96.024 6.68719 95.168 6.68719 93.84ZM21.6448 90.792L22.8448 90.816C23.1168 90.816 23.2688 90.808 23.3008 90.792V85.872C23.3168 85.6 23.4528 85.368 23.7088 85.176C23.9648 84.984 24.2048 84.888 24.4288 84.888C24.6528 84.888 24.8288 84.96 24.9568 85.104C25.1008 85.248 25.1648 85.472 25.1488 85.776C25.1328 86.08 25.1248 87.744 25.1248 90.768L27.9328 90.672C28.4128 90.672 28.6528 90.952 28.6528 91.512C28.6528 91.928 28.5248 92.24 28.2688 92.448C28.0288 92.656 27.7648 92.768 27.4768 92.784C27.2048 92.8 26.9328 92.808 26.6608 92.808L25.1968 92.784C25.1968 93.44 25.2608 94.736 25.3888 96.672C25.5328 98.608 25.6448 99.864 25.7248 100.44C25.8048 101 25.8208 101.368 25.7728 101.544C25.7248 101.704 25.6368 101.816 25.5088 101.88C25.3008 101.976 25.0208 102.024 24.6688 102.024C24.3168 102.024 24.1088 101.832 24.0448 101.448C23.7248 99.352 23.5088 96.472 23.3968 92.808C23.2528 92.824 22.7008 92.832 21.7408 92.832C20.7808 92.832 20.3008 92.552 20.3008 91.992C20.3008 91.192 20.7488 90.792 21.6448 90.792ZM31.8628 94.224L32.0548 99.888C32.0548 100.592 32.0228 101 31.9588 101.112C31.9268 101.4 31.8308 101.624 31.6708 101.784C31.5268 101.944 31.2388 102.024 30.8068 102.024C30.5988 102.024 30.4308 101.896 30.3028 101.64C30.1748 101.368 30.1028 101.064 30.0868 100.728C29.9748 97.912 29.8228 95.272 29.6308 92.808C29.4548 90.328 29.3668 88.024 29.3668 85.896C29.3668 85.56 29.4788 85.296 29.7028 85.104C29.9268 84.912 30.1908 84.816 30.4948 84.816C30.9428 84.816 31.2068 85.2 31.2868 85.968C31.3828 86.736 31.4388 87.696 31.4548 88.848C31.4868 90 31.5188 90.84 31.5508 91.368C32.3508 90.952 33.1508 90.744 33.9508 90.744C35.8068 90.744 36.9828 91.56 37.4788 93.192C37.7668 94.12 37.9108 95.312 37.9108 96.768C37.9108 97.248 37.8628 98.008 37.7668 99.048C37.6868 100.072 37.6388 100.736 37.6228 101.04C37.6068 101.344 37.4708 101.584 37.2148 101.76C36.9748 101.92 36.7108 102 36.4228 102C35.9748 102 35.7508 101.76 35.7508 101.28L35.9188 97.104C35.9188 96.752 35.9028 96.168 35.8708 95.352C35.8388 94.536 35.6708 93.888 35.3668 93.408C35.0788 92.928 34.5668 92.688 33.8308 92.688C32.5188 92.688 31.8628 93.2 31.8628 94.224ZM46.0689 90.792C46.7729 90.792 47.1249 91.392 47.1249 92.592C47.1249 92.72 47.1249 92.856 47.1249 93L47.0769 94.68C47.0609 95.208 47.0529 95.728 47.0529 96.24L47.4129 101.664C47.4129 102.064 47.0049 102.264 46.1889 102.264C46.1409 102.264 46.0209 102.264 45.8289 102.264C45.6529 102.264 45.5249 102.192 45.4449 102.048C45.3809 101.904 45.3729 101.728 45.4209 101.52C45.4849 101.312 45.4689 101.08 45.3729 100.824C44.6369 101.608 43.6609 102 42.4449 102C40.1889 102 39.0609 100.256 39.0609 96.768C39.0609 94.832 39.4209 93.368 40.1409 92.376C40.8769 91.384 41.9249 90.888 43.2849 90.888C43.9249 90.888 44.5649 91 45.2049 91.224C45.4129 90.936 45.7009 90.792 46.0689 90.792ZM43.5729 92.976C42.6609 92.976 41.9809 93.24 41.5329 93.768C41.0849 94.296 40.8609 95.264 40.8609 96.672C40.8609 99.04 41.5009 100.224 42.7809 100.224C43.1169 100.224 43.4849 100.072 43.8849 99.768C44.3009 99.464 44.5889 99.12 44.7489 98.736C45.0529 97.872 45.2049 96.928 45.2049 95.904C45.2049 94.88 45.0769 94.136 44.8209 93.672C44.5809 93.208 44.1649 92.976 43.5729 92.976ZM49.3714 90.792L50.5714 90.816C50.8434 90.816 50.9954 90.808 51.0274 90.792V85.872C51.0434 85.6 51.1794 85.368 51.4354 85.176C51.6914 84.984 51.9314 84.888 52.1554 84.888C52.3794 84.888 52.5554 84.96 52.6834 85.104C52.8274 85.248 52.8914 85.472 52.8754 85.776C52.8594 86.08 52.8514 87.744 52.8514 90.768L55.6594 90.672C56.1394 90.672 56.3794 90.952 56.3794 91.512C56.3794 91.928 56.2514 92.24 55.9954 92.448C55.7554 92.656 55.4914 92.768 55.2034 92.784C54.9314 92.8 54.6594 92.808 54.3874 92.808L52.9234 92.784C52.9234 93.44 52.9874 94.736 53.1154 96.672C53.2594 98.608 53.3714 99.864 53.4514 100.44C53.5314 101 53.5474 101.368 53.4994 101.544C53.4514 101.704 53.3634 101.816 53.2354 101.88C53.0274 101.976 52.7474 102.024 52.3954 102.024C52.0434 102.024 51.8354 101.832 51.7714 101.448C51.4514 99.352 51.2354 96.472 51.1234 92.808C50.9794 92.824 50.4274 92.832 49.4674 92.832C48.5074 92.832 48.0274 92.552 48.0274 91.992C48.0274 91.192 48.4754 90.792 49.3714 90.792ZM62.6006 85.776C62.6006 85.136 63.0006 84.816 63.8006 84.816C64.1686 84.816 64.3846 85.04 64.4486 85.488V89.088C64.4486 89.76 64.4566 90.432 64.4726 91.104C64.7926 91.008 65.2006 90.96 65.6966 90.96C67.2486 90.96 68.4486 91.48 69.2966 92.52C70.1446 93.56 70.5686 94.864 70.5686 96.432C70.5686 98 70.0646 99.328 69.0566 100.416C68.0646 101.488 66.7846 102.024 65.2166 102.024C63.6486 102.024 62.8646 101.584 62.8646 100.704C62.8646 99.808 62.8166 97.552 62.7206 93.936C62.6406 90.304 62.6006 87.584 62.6006 85.776ZM67.4486 93.504C66.8726 93.056 66.2646 92.832 65.6246 92.832C65.2726 92.832 64.9126 92.896 64.5446 93.024C64.6406 94.336 64.6886 96.664 64.6886 100.008C64.9606 100.104 65.2406 100.152 65.5286 100.152C66.1526 100.152 66.7766 99.92 67.4006 99.456C68.3286 98.816 68.7926 97.84 68.7926 96.528C68.7926 95.2 68.3446 94.192 67.4486 93.504ZM74.0273 86.832C74.3153 86.832 74.5873 86.968 74.8433 87.24C75.0993 87.512 75.2273 87.8 75.2273 88.104C75.2273 88.392 75.0833 88.688 74.7953 88.992C74.5233 89.296 74.2353 89.448 73.9313 89.448C73.6273 89.448 73.3473 89.32 73.0913 89.064C72.8513 88.808 72.7313 88.48 72.7313 88.08C72.7313 87.312 73.1473 86.896 73.9793 86.832C73.9953 86.832 74.0113 86.832 74.0273 86.832ZM75.0353 99.408L75.0592 101.088C75.0592 101.392 74.9392 101.648 74.6992 101.856C74.4593 102.048 74.2033 102.144 73.9313 102.144C73.5313 102.144 73.3233 101.944 73.3073 101.544C73.0993 96.44 72.9953 93.616 72.9953 93.072C72.9953 92.528 73.0193 91.864 73.0673 91.08C73.0993 90.792 73.2833 90.648 73.6193 90.648C74.4673 90.648 74.9473 90.992 75.0592 91.68C75.1073 92.032 75.1313 92.312 75.1313 92.52L75.0353 94.032V99.408ZM84.6984 101.016C84.1224 101.688 83.3944 102.024 82.5144 102.024C81.6344 102.024 80.8744 101.752 80.2344 101.208C78.8904 100.168 78.2184 98.576 78.2184 96.432C78.2184 94.752 78.6824 93.408 79.6104 92.4C80.5384 91.376 81.6824 90.864 83.0424 90.864C84.4024 90.864 85.3304 91.328 85.8264 92.256C86.2584 93.072 86.4744 94.304 86.4744 95.952L86.4264 97.92C86.4264 98.848 86.4664 100.136 86.5464 101.784C86.6424 103.416 86.6904 104.648 86.6904 105.48C86.6904 106.856 86.3464 107.864 85.6584 108.504C84.9864 109.16 83.9544 109.488 82.5624 109.488C81.7304 109.488 80.8824 109.312 80.0184 108.96C79.1544 108.608 78.7224 108.2 78.7224 107.736C78.7224 107.4 78.8104 107.144 78.9864 106.968C79.1784 106.792 79.3944 106.704 79.6344 106.704C79.8744 106.704 80.4104 106.88 81.2424 107.232C82.0904 107.584 82.6984 107.76 83.0664 107.76C84.2184 107.76 84.7944 106.816 84.7944 104.928C84.7944 103.04 84.7624 101.736 84.6984 101.016ZM84.6744 95.952C84.6744 94.784 84.4984 93.968 84.1464 93.504C83.8104 93.024 83.2744 92.784 82.5384 92.784C81.8024 92.784 81.2104 93.12 80.7624 93.792C80.3144 94.464 80.0904 95.32 80.0904 96.36C80.0904 97.384 80.2984 98.2 80.7144 98.808C81.1464 99.416 81.8024 99.72 82.6824 99.72C83.5624 99.72 84.1304 99.344 84.3864 98.592C84.5784 97.984 84.6744 97.104 84.6744 95.952ZM97.4852 90.888C98.3332 90.888 99.1412 91.136 99.9092 91.632C100.677 92.128 101.061 92.744 101.061 93.48C101.061 94.2 100.749 94.904 100.125 95.592C99.5012 96.264 98.6692 96.672 97.6292 96.816C97.1812 96.88 96.5092 96.912 95.6132 96.912C95.7892 98.272 96.1332 99.168 96.6452 99.6C96.8052 99.776 97.0212 99.864 97.2932 99.864C98.2852 99.864 99.1172 99.552 99.7892 98.928C100.461 98.288 100.941 97.968 101.229 97.968C101.357 97.968 101.549 98.088 101.805 98.328C102.061 98.568 102.189 98.792 102.189 99C102.189 99.416 101.685 100.016 100.677 100.8C100.229 101.168 99.6852 101.48 99.0452 101.736C98.4212 101.976 97.8372 102.096 97.2932 102.096C95.9012 102.096 94.8772 101.2 94.2212 99.408C93.8052 98.304 93.5972 97.088 93.5972 95.76C93.5972 94.432 93.9092 93.288 94.5332 92.328C95.1572 91.368 96.1412 90.888 97.4852 90.888ZM97.6052 92.544C96.9972 92.544 96.4772 92.888 96.0452 93.576C95.8852 93.816 95.7332 94.36 95.5892 95.208C97.8292 95.208 98.9492 94.656 98.9492 93.552C98.9492 92.88 98.5012 92.544 97.6052 92.544ZM104.504 101.256L104.24 91.512C104.24 91.208 104.344 90.96 104.552 90.768C104.76 90.576 104.968 90.48 105.176 90.48C105.688 90.48 105.984 90.696 106.064 91.128C106.128 91.56 106.16 92.008 106.16 92.472C107.024 91.336 108.104 90.768 109.4 90.768C111.384 90.768 112.376 93.032 112.376 97.56C112.376 97.976 112.376 98.608 112.376 99.456C112.376 100.288 112.328 100.896 112.232 101.28C112.12 101.76 111.776 102 111.2 102C110.816 102 110.624 101.744 110.624 101.232L110.648 99.888C110.648 98.032 110.584 96.768 110.456 96.096C110.344 95.408 110.232 94.864 110.12 94.464C109.848 93.6 109.408 93.168 108.8 93.168C108 93.168 107.44 93.456 107.12 94.032C106.768 94.656 106.56 95.392 106.496 96.24C106.384 97.728 106.328 99.304 106.328 100.968C106.328 101.288 106.208 101.544 105.968 101.736C105.728 101.928 105.44 102.024 105.104 102.024C104.704 102.024 104.504 101.768 104.504 101.256ZM118.691 90.816C119.843 90.816 120.787 91.368 121.523 92.472C122.275 93.576 122.651 94.904 122.651 96.456C122.651 97.992 122.267 99.304 121.499 100.392C120.747 101.48 119.739 102.024 118.475 102.024C117.227 102.024 116.219 101.472 115.451 100.368C114.683 99.248 114.299 98.008 114.299 96.648C114.299 94.904 114.651 93.512 115.355 92.472C116.107 91.368 117.219 90.816 118.691 90.816ZM118.403 92.784C117.731 92.784 117.179 93.136 116.747 93.84C116.315 94.544 116.099 95.288 116.099 96.072C116.099 97.288 116.339 98.216 116.819 98.856C117.299 99.496 117.843 99.816 118.451 99.816C119.539 99.816 120.235 99.344 120.539 98.4C120.667 97.952 120.731 97.392 120.731 96.72C120.731 94.096 119.955 92.784 118.403 92.784ZM124.075 91.728C124.139 91.456 124.275 91.232 124.483 91.056C124.691 90.864 124.899 90.768 125.107 90.768C125.331 90.768 125.499 90.808 125.611 90.888C125.739 90.968 125.811 91.04 125.827 91.104C125.859 91.168 125.891 91.28 125.923 91.44C125.827 92.688 125.779 93.816 125.779 94.824C125.779 95.816 125.899 96.96 126.139 98.256C126.379 99.536 126.643 100.176 126.931 100.176C127.363 100.176 127.907 99.936 128.563 99.456C129.235 98.976 129.715 98.472 130.003 97.944C129.811 95.64 129.715 93.664 129.715 92.016C129.715 91.68 129.819 91.392 130.027 91.152C130.251 90.912 130.515 90.792 130.819 90.792C131.315 90.792 131.563 91.128 131.563 91.8C131.563 92.936 131.643 94.624 131.803 96.864C131.979 99.104 132.155 100.528 132.331 101.136C132.363 101.264 132.379 101.416 132.379 101.592C132.379 101.752 132.267 101.904 132.043 102.048C131.835 102.208 131.555 102.288 131.203 102.288C130.867 102.288 130.643 102.096 130.531 101.712C130.499 101.392 130.419 100.912 130.291 100.272C129.171 101.44 128.043 102.024 126.907 102.024C126.379 102.024 125.907 101.824 125.491 101.424C125.075 101.024 124.747 100.48 124.507 99.792C124.091 98.464 123.883 97.216 123.883 96.048C123.883 94.88 123.947 93.44 124.075 91.728ZM140.62 101.016C140.044 101.688 139.316 102.024 138.436 102.024C137.556 102.024 136.796 101.752 136.156 101.208C134.812 100.168 134.14 98.576 134.14 96.432C134.14 94.752 134.604 93.408 135.532 92.4C136.46 91.376 137.604 90.864 138.964 90.864C140.324 90.864 141.252 91.328 141.748 92.256C142.18 93.072 142.396 94.304 142.396 95.952L142.348 97.92C142.348 98.848 142.388 100.136 142.468 101.784C142.564 103.416 142.612 104.648 142.612 105.48C142.612 106.856 142.268 107.864 141.58 108.504C140.908 109.16 139.876 109.488 138.484 109.488C137.652 109.488 136.804 109.312 135.94 108.96C135.076 108.608 134.644 108.2 134.644 107.736C134.644 107.4 134.732 107.144 134.908 106.968C135.1 106.792 135.316 106.704 135.556 106.704C135.796 106.704 136.332 106.88 137.164 107.232C138.012 107.584 138.62 107.76 138.988 107.76C140.14 107.76 140.716 106.816 140.716 104.928C140.716 103.04 140.684 101.736 140.62 101.016ZM140.596 95.952C140.596 94.784 140.42 93.968 140.068 93.504C139.732 93.024 139.196 92.784 138.46 92.784C137.724 92.784 137.132 93.12 136.684 93.792C136.236 94.464 136.012 95.32 136.012 96.36C136.012 97.384 136.22 98.2 136.636 98.808C137.068 99.416 137.724 99.72 138.604 99.72C139.484 99.72 140.052 99.344 140.308 98.592C140.5 97.984 140.596 97.104 140.596 95.952ZM146.988 94.224L147.18 99.888C147.18 100.592 147.148 101 147.084 101.112C147.052 101.4 146.956 101.624 146.796 101.784C146.652 101.944 146.364 102.024 145.932 102.024C145.724 102.024 145.556 101.896 145.428 101.64C145.3 101.368 145.228 101.064 145.212 100.728C145.1 97.912 144.948 95.272 144.756 92.808C144.58 90.328 144.492 88.024 144.492 85.896C144.492 85.56 144.604 85.296 144.828 85.104C145.052 84.912 145.316 84.816 145.62 84.816C146.068 84.816 146.332 85.2 146.412 85.968C146.508 86.736 146.564 87.696 146.58 88.848C146.612 90 146.644 90.84 146.676 91.368C147.476 90.952 148.276 90.744 149.076 90.744C150.932 90.744 152.108 91.56 152.604 93.192C152.892 94.12 153.036 95.312 153.036 96.768C153.036 97.248 152.988 98.008 152.892 99.048C152.812 100.072 152.764 100.736 152.748 101.04C152.732 101.344 152.596 101.584 152.34 101.76C152.1 101.92 151.836 102 151.548 102C151.1 102 150.876 101.76 150.876 101.28L151.044 97.104C151.044 96.752 151.028 96.168 150.996 95.352C150.964 94.536 150.796 93.888 150.492 93.408C150.204 92.928 149.692 92.688 148.956 92.688C147.644 92.688 146.988 93.2 146.988 94.224ZM160.258 88.32C160.258 87.936 160.05 87.592 159.634 87.288C159.234 86.984 158.826 86.832 158.41 86.832C157.994 86.832 157.61 86.928 157.258 87.12C156.906 87.296 156.65 87.512 156.49 87.768C156.042 88.408 155.698 88.728 155.458 88.728C154.77 88.728 154.426 88.392 154.426 87.72C154.426 87.112 154.85 86.496 155.698 85.872C156.546 85.232 157.434 84.912 158.362 84.912C159.674 84.912 160.714 85.448 161.482 86.52C161.898 87.112 162.106 87.712 162.106 88.32C162.106 89.376 161.674 90.392 160.81 91.368C160.442 91.784 160.074 92.176 159.706 92.544C158.826 93.424 158.386 94.008 158.386 94.296C158.386 94.584 158.498 94.904 158.722 95.256C158.93 95.608 159.034 95.848 159.034 95.976C159.034 96.104 158.994 96.248 158.914 96.408C158.722 96.696 158.442 96.84 158.074 96.84C157.722 96.84 157.362 96.6 156.994 96.12C156.626 95.624 156.442 95.08 156.442 94.488C156.442 93.448 156.834 92.504 157.618 91.656C157.986 91.256 158.33 90.92 158.65 90.648C159.722 89.64 160.258 88.864 160.258 88.32ZM157.018 99.984C157.018 99.696 157.122 99.432 157.33 99.192C157.554 98.952 157.858 98.832 158.242 98.832C158.626 98.832 158.898 98.904 159.058 99.048C159.234 99.192 159.322 99.504 159.322 99.984C159.322 100.832 158.938 101.256 158.17 101.256C157.882 101.256 157.618 101.112 157.378 100.824C157.138 100.536 157.018 100.256 157.018 99.984ZM170.617 86.952C170.905 86.952 171.177 87.088 171.433 87.36C171.689 87.632 171.817 87.92 171.817 88.224C171.817 88.512 171.673 88.808 171.385 89.112C171.113 89.416 170.825 89.568 170.521 89.568C170.217 89.568 169.937 89.44 169.681 89.184C169.441 88.928 169.321 88.6 169.321 88.2C169.321 87.432 169.737 87.016 170.569 86.952C170.585 86.952 170.601 86.952 170.617 86.952ZM169.849 91.656C169.817 91.4 169.905 91.192 170.113 91.032C170.321 90.856 170.633 90.768 171.049 90.768C171.465 90.768 171.697 90.968 171.745 91.368C171.969 93.336 172.081 95.2 172.081 96.96C172.081 98.72 172.025 100.48 171.913 102.24C171.801 104.016 171.545 105.384 171.145 106.344C170.601 107.608 169.617 108.24 168.193 108.24C167.473 108.24 166.849 108.016 166.321 107.568C165.793 107.12 165.529 106.584 165.529 105.96C165.529 105.624 165.649 105.368 165.889 105.192C166.129 105.016 166.393 104.928 166.681 104.928C166.969 104.928 167.185 105 167.329 105.144C167.473 105.288 167.569 105.448 167.617 105.624C167.777 106.088 168.049 106.32 168.433 106.32C168.833 106.32 169.169 106.008 169.441 105.384C169.729 104.76 169.913 103.912 169.993 102.84C170.089 101.768 170.137 100.632 170.137 99.432C170.137 95.672 170.041 93.08 169.849 91.656ZM174.466 91.728C174.53 91.456 174.666 91.232 174.874 91.056C175.082 90.864 175.29 90.768 175.498 90.768C175.722 90.768 175.89 90.808 176.002 90.888C176.13 90.968 176.202 91.04 176.218 91.104C176.25 91.168 176.282 91.28 176.314 91.44C176.218 92.688 176.17 93.816 176.17 94.824C176.17 95.816 176.29 96.96 176.53 98.256C176.77 99.536 177.034 100.176 177.322 100.176C177.754 100.176 178.298 99.936 178.954 99.456C179.626 98.976 180.106 98.472 180.394 97.944C180.202 95.64 180.106 93.664 180.106 92.016C180.106 91.68 180.21 91.392 180.418 91.152C180.642 90.912 180.906 90.792 181.21 90.792C181.706 90.792 181.954 91.128 181.954 91.8C181.954 92.936 182.034 94.624 182.194 96.864C182.37 99.104 182.546 100.528 182.722 101.136C182.754 101.264 182.77 101.416 182.77 101.592C182.77 101.752 182.658 101.904 182.434 102.048C182.226 102.208 181.946 102.288 181.594 102.288C181.258 102.288 181.034 102.096 180.922 101.712C180.89 101.392 180.81 100.912 180.682 100.272C179.562 101.44 178.434 102.024 177.298 102.024C176.77 102.024 176.298 101.824 175.882 101.424C175.466 101.024 175.138 100.48 174.898 99.792C174.482 98.464 174.274 97.216 174.274 96.048C174.274 94.88 174.338 93.44 174.466 91.728ZM184.531 93.84C184.531 92.896 184.867 92.144 185.539 91.584C186.211 91.024 186.987 90.744 187.867 90.744C188.763 90.744 189.619 90.904 190.435 91.224C191.251 91.544 191.659 91.968 191.659 92.496C191.659 92.768 191.555 92.984 191.347 93.144C191.139 93.304 190.955 93.384 190.795 93.384C190.651 93.384 190.531 93.384 190.435 93.384C190.355 93.368 190.035 93.216 189.475 92.928C188.931 92.64 188.427 92.496 187.963 92.496C187.499 92.496 187.099 92.616 186.763 92.856C186.443 93.08 186.283 93.416 186.283 93.864C186.283 94.312 186.467 94.664 186.835 94.92C187.219 95.176 187.883 95.4 188.827 95.592C189.771 95.768 190.491 96.024 190.987 96.36C191.499 96.696 191.755 97.32 191.755 98.232C191.755 99.56 191.403 100.504 190.699 101.064C190.011 101.608 189.171 101.88 188.179 101.88C187.187 101.88 186.339 101.744 185.635 101.472C184.947 101.2 184.603 100.792 184.603 100.248C184.603 99.624 184.915 99.312 185.539 99.312C185.699 99.312 186.051 99.424 186.595 99.648C187.139 99.872 187.675 99.984 188.203 99.984C188.747 99.984 189.155 99.816 189.427 99.48C189.715 99.128 189.859 98.728 189.859 98.28C189.859 97.832 189.675 97.512 189.307 97.32C188.939 97.112 188.379 96.944 187.627 96.816C186.875 96.688 186.323 96.552 185.971 96.408C185.011 96.024 184.531 95.168 184.531 93.84ZM193.957 90.792L195.157 90.816C195.429 90.816 195.581 90.808 195.613 90.792V85.872C195.629 85.6 195.765 85.368 196.021 85.176C196.277 84.984 196.517 84.888 196.741 84.888C196.965 84.888 197.141 84.96 197.269 85.104C197.413 85.248 197.477 85.472 197.461 85.776C197.445 86.08 197.437 87.744 197.437 90.768L200.245 90.672C200.725 90.672 200.965 90.952 200.965 91.512C200.965 91.928 200.837 92.24 200.581 92.448C200.341 92.656 200.077 92.768 199.789 92.784C199.517 92.8 199.245 92.808 198.973 92.808L197.509 92.784C197.509 93.44 197.573 94.736 197.701 96.672C197.845 98.608 197.957 99.864 198.037 100.44C198.117 101 198.133 101.368 198.085 101.544C198.037 101.704 197.949 101.816 197.821 101.88C197.613 101.976 197.333 102.024 196.981 102.024C196.629 102.024 196.421 101.832 196.357 101.448C196.037 99.352 195.821 96.472 195.709 92.808C195.565 92.824 195.013 92.832 194.053 92.832C193.093 92.832 192.613 92.552 192.613 91.992C192.613 91.192 193.061 90.792 193.957 90.792ZM2.904 133.976C2.36 133.976 1.832 132.92 1.32 130.808C0.824 128.68 0.576 126.296 0.576 123.656C0.576 123.384 0.688 123.176 0.912 123.032C1.152 122.872 1.368 122.792 1.56 122.792C1.752 122.792 1.904 122.856 2.016 122.984C2.144 123.096 2.208 123.248 2.208 123.44C2.208 125.936 2.632 128.336 3.48 130.64C3.608 130.448 3.808 130.064 4.08 129.488C4.352 128.896 4.608 128.464 4.848 128.192C5.088 127.92 5.376 127.784 5.712 127.784C6.048 127.784 6.4 128.032 6.768 128.528C7.136 129.024 7.448 129.56 7.704 130.136C7.976 130.696 8.128 130.992 8.16 131.024C8.592 129.68 8.808 128.432 8.808 127.28L8.664 123.632C8.648 123.392 8.76 123.192 9 123.032C9.24 122.856 9.472 122.768 9.696 122.768C10.16 122.768 10.392 123.672 10.392 125.48V126.8C10.392 128.944 10.064 130.856 9.408 132.536C9.056 133.496 8.616 133.976 8.088 133.976C7.784 133.976 7.504 133.784 7.248 133.4C6.992 133 6.704 132.44 6.384 131.72C6.064 131 5.816 130.504 5.64 130.232L4.92 131.648C4.648 132.208 4.44 132.616 4.296 132.872C4.152 133.112 3.952 133.36 3.696 133.616C3.44 133.856 3.176 133.976 2.904 133.976ZM18.7174 122.792C19.4214 122.792 19.7734 123.392 19.7734 124.592C19.7734 124.72 19.7734 124.856 19.7734 125L19.7254 126.68C19.7094 127.208 19.7014 127.728 19.7014 128.24L20.0614 133.664C20.0614 134.064 19.6534 134.264 18.8374 134.264C18.7894 134.264 18.6694 134.264 18.4774 134.264C18.3014 134.264 18.1734 134.192 18.0934 134.048C18.0294 133.904 18.0214 133.728 18.0694 133.52C18.1334 133.312 18.1174 133.08 18.0214 132.824C17.2854 133.608 16.3094 134 15.0934 134C12.8374 134 11.7094 132.256 11.7094 128.768C11.7094 126.832 12.0694 125.368 12.7894 124.376C13.5254 123.384 14.5734 122.888 15.9334 122.888C16.5734 122.888 17.2134 123 17.8534 123.224C18.0614 122.936 18.3494 122.792 18.7174 122.792ZM16.2214 124.976C15.3094 124.976 14.6294 125.24 14.1814 125.768C13.7334 126.296 13.5094 127.264 13.5094 128.672C13.5094 131.04 14.1494 132.224 15.4294 132.224C15.7654 132.224 16.1334 132.072 16.5334 131.768C16.9494 131.464 17.2374 131.12 17.3974 130.736C17.7014 129.872 17.8534 128.928 17.8534 127.904C17.8534 126.88 17.7254 126.136 17.4694 125.672C17.2294 125.208 16.8134 124.976 16.2214 124.976ZM22.3318 133.256L22.0678 123.512C22.0678 123.208 22.1718 122.96 22.3798 122.768C22.5878 122.576 22.7958 122.48 23.0038 122.48C23.5158 122.48 23.8118 122.696 23.8918 123.128C23.9558 123.56 23.9878 124.008 23.9878 124.472C24.8518 123.336 25.9318 122.768 27.2278 122.768C29.2118 122.768 30.2038 125.032 30.2038 129.56C30.2038 129.976 30.2038 130.608 30.2038 131.456C30.2038 132.288 30.1558 132.896 30.0598 133.28C29.9478 133.76 29.6038 134 29.0278 134C28.6438 134 28.4518 133.744 28.4518 133.232L28.4758 131.888C28.4758 130.032 28.4118 128.768 28.2838 128.096C28.1718 127.408 28.0598 126.864 27.9478 126.464C27.6758 125.6 27.2358 125.168 26.6278 125.168C25.8278 125.168 25.2678 125.456 24.9478 126.032C24.5958 126.656 24.3878 127.392 24.3238 128.24C24.2118 129.728 24.1558 131.304 24.1558 132.968C24.1558 133.288 24.0358 133.544 23.7958 133.736C23.5558 133.928 23.2678 134.024 22.9318 134.024C22.5318 134.024 22.3318 133.768 22.3318 133.256ZM32.8714 122.792L34.0714 122.816C34.3434 122.816 34.4954 122.808 34.5274 122.792V117.872C34.5434 117.6 34.6794 117.368 34.9354 117.176C35.1914 116.984 35.4314 116.888 35.6554 116.888C35.8794 116.888 36.0554 116.96 36.1834 117.104C36.3274 117.248 36.3914 117.472 36.3754 117.776C36.3594 118.08 36.3514 119.744 36.3514 122.768L39.1594 122.672C39.6394 122.672 39.8794 122.952 39.8794 123.512C39.8794 123.928 39.7514 124.24 39.4954 124.448C39.2554 124.656 38.9914 124.768 38.7034 124.784C38.4314 124.8 38.1594 124.808 37.8874 124.808L36.4234 124.784C36.4234 125.44 36.4874 126.736 36.6154 128.672C36.7594 130.608 36.8714 131.864 36.9514 132.44C37.0314 133 37.0474 133.368 36.9994 133.544C36.9514 133.704 36.8634 133.816 36.7354 133.88C36.5274 133.976 36.2474 134.024 35.8954 134.024C35.5434 134.024 35.3354 133.832 35.2714 133.448C34.9514 131.352 34.7354 128.472 34.6234 124.808C34.4794 124.824 33.9274 124.832 32.9674 124.832C32.0074 124.832 31.5274 124.552 31.5274 123.992C31.5274 123.192 31.9754 122.792 32.8714 122.792ZM43.9774 122.888C44.8254 122.888 45.6334 123.136 46.4014 123.632C47.1694 124.128 47.5534 124.744 47.5534 125.48C47.5534 126.2 47.2414 126.904 46.6174 127.592C45.9934 128.264 45.1614 128.672 44.1214 128.816C43.6734 128.88 43.0014 128.912 42.1054 128.912C42.2814 130.272 42.6254 131.168 43.1374 131.6C43.2974 131.776 43.5134 131.864 43.7854 131.864C44.7774 131.864 45.6094 131.552 46.2814 130.928C46.9534 130.288 47.4334 129.968 47.7214 129.968C47.8494 129.968 48.0414 130.088 48.2974 130.328C48.5534 130.568 48.6814 130.792 48.6814 131C48.6814 131.416 48.1774 132.016 47.1694 132.8C46.7214 133.168 46.1774 133.48 45.5374 133.736C44.9134 133.976 44.3294 134.096 43.7854 134.096C42.3934 134.096 41.3694 133.2 40.7134 131.408C40.2974 130.304 40.0894 129.088 40.0894 127.76C40.0894 126.432 40.4014 125.288 41.0254 124.328C41.6494 123.368 42.6334 122.888 43.9774 122.888ZM44.0974 124.544C43.4894 124.544 42.9694 124.888 42.5374 125.576C42.3774 125.816 42.2254 126.36 42.0814 127.208C44.3214 127.208 45.4414 126.656 45.4414 125.552C45.4414 124.88 44.9934 124.544 44.0974 124.544ZM55.8199 122.768L55.7959 118.136C55.7959 117.272 56.0679 116.84 56.6119 116.84C57.1719 116.84 57.4839 117.08 57.5479 117.56C57.5799 117.768 57.6199 119.024 57.6679 121.328C57.7159 123.632 57.7879 125.792 57.8839 127.808C57.9959 129.824 58.0519 131.704 58.0519 133.448C58.0519 133.928 57.6919 134.168 56.9719 134.168C56.4919 134.168 56.2519 133.832 56.2519 133.16C55.5639 133.704 54.7479 133.976 53.8039 133.976C52.6039 133.976 51.6279 133.528 50.8759 132.632C50.1399 131.736 49.7719 130.632 49.7719 129.32C49.7719 128.008 50.0359 126.784 50.5639 125.648C51.1079 124.496 51.9479 123.672 53.0839 123.176C53.7879 122.872 54.4679 122.72 55.1239 122.72C55.3639 122.72 55.5959 122.736 55.8199 122.768ZM55.9399 126.056C55.8279 125.704 55.6919 125.44 55.5319 125.264C55.3719 125.072 55.1959 124.96 55.0039 124.928C54.8279 124.88 54.6119 124.856 54.3559 124.856C54.0999 124.856 53.7879 124.952 53.4199 125.144C53.0519 125.336 52.7399 125.648 52.4839 126.08C51.9719 126.944 51.7159 127.856 51.7159 128.816C51.7159 129.76 51.8999 130.536 52.2679 131.144C52.6519 131.736 53.1879 132.032 53.8759 132.032C54.5799 132.032 55.1319 131.688 55.5319 131C55.9319 130.312 56.1319 129.432 56.1319 128.36C56.1319 127.16 56.0679 126.392 55.9399 126.056ZM65.5667 122.792L66.7667 122.816C67.0387 122.816 67.1907 122.808 67.2227 122.792V117.872C67.2387 117.6 67.3747 117.368 67.6307 117.176C67.8867 116.984 68.1267 116.888 68.3507 116.888C68.5747 116.888 68.7507 116.96 68.8787 117.104C69.0227 117.248 69.0867 117.472 69.0707 117.776C69.0547 118.08 69.0467 119.744 69.0467 122.768L71.8547 122.672C72.3347 122.672 72.5747 122.952 72.5747 123.512C72.5747 123.928 72.4467 124.24 72.1907 124.448C71.9507 124.656 71.6867 124.768 71.3987 124.784C71.1267 124.8 70.8547 124.808 70.5827 124.808L69.1187 124.784C69.1187 125.44 69.1827 126.736 69.3107 128.672C69.4547 130.608 69.5667 131.864 69.6467 132.44C69.7267 133 69.7427 133.368 69.6947 133.544C69.6467 133.704 69.5587 133.816 69.4307 133.88C69.2227 133.976 68.9427 134.024 68.5907 134.024C68.2387 134.024 68.0307 133.832 67.9667 133.448C67.6467 131.352 67.4307 128.472 67.3187 124.808C67.1747 124.824 66.6227 124.832 65.6627 124.832C64.7027 124.832 64.2227 124.552 64.2227 123.992C64.2227 123.192 64.6707 122.792 65.5667 122.792ZM77.4647 122.816C78.6167 122.816 79.5607 123.368 80.2967 124.472C81.0487 125.576 81.4247 126.904 81.4247 128.456C81.4247 129.992 81.0407 131.304 80.2727 132.392C79.5207 133.48 78.5127 134.024 77.2487 134.024C76.0007 134.024 74.9927 133.472 74.2247 132.368C73.4567 131.248 73.0727 130.008 73.0727 128.648C73.0727 126.904 73.4247 125.512 74.1287 124.472C74.8807 123.368 75.9927 122.816 77.4647 122.816ZM77.1767 124.784C76.5047 124.784 75.9527 125.136 75.5207 125.84C75.0887 126.544 74.8727 127.288 74.8727 128.072C74.8727 129.288 75.1127 130.216 75.5927 130.856C76.0727 131.496 76.6167 131.816 77.2247 131.816C78.3127 131.816 79.0087 131.344 79.3127 130.4C79.4407 129.952 79.5047 129.392 79.5047 128.72C79.5047 126.096 78.7287 124.784 77.1767 124.784ZM89.7956 134.024C89.3796 134.024 89.1316 133.792 89.0516 133.328C89.0516 130.096 88.8596 127.216 88.4756 124.688C88.4756 124.368 88.5876 124.08 88.8116 123.824C89.0516 123.568 89.3156 123.44 89.6036 123.44C89.9076 123.44 90.1316 123.608 90.2756 123.944C90.8676 123.16 91.6596 122.768 92.6516 122.768C93.9156 122.768 94.8916 123.376 95.5796 124.592C96.3796 123.44 97.4356 122.864 98.7476 122.864C100.076 122.864 101.068 123.392 101.724 124.448C102.156 125.104 102.46 125.968 102.636 127.04C102.812 128.112 102.9 129.632 102.9 131.6C102.9 132.368 102.82 132.968 102.66 133.4C102.5 133.816 102.164 134.024 101.652 134.024C101.236 134.024 101.028 133.76 101.028 133.232L101.1 130.232C101.1 126.632 100.164 124.832 98.2916 124.832C97.6996 124.832 97.2836 125.04 97.0436 125.456C96.7716 125.952 96.6116 126.472 96.5636 127.016C96.4996 127.976 96.4676 128.848 96.4676 129.632V133.112C96.4676 133.368 96.3396 133.584 96.0836 133.76C95.8276 133.936 95.5636 134.024 95.2916 134.024C94.9396 134.024 94.7156 133.792 94.6196 133.328L94.6916 128.36C94.6916 126.6 94.3956 125.504 93.8036 125.072C93.5156 124.864 93.0756 124.76 92.4836 124.76C91.9076 124.76 91.4756 124.976 91.1876 125.408C90.9156 125.84 90.7796 126.536 90.7796 127.496L90.9236 131.96C90.9236 133.336 90.5476 134.024 89.7956 134.024ZM111.436 122.792C112.14 122.792 112.492 123.392 112.492 124.592C112.492 124.72 112.492 124.856 112.492 125L112.444 126.68C112.428 127.208 112.42 127.728 112.42 128.24L112.78 133.664C112.78 134.064 112.372 134.264 111.556 134.264C111.508 134.264 111.388 134.264 111.196 134.264C111.02 134.264 110.892 134.192 110.812 134.048C110.748 133.904 110.74 133.728 110.788 133.52C110.852 133.312 110.836 133.08 110.74 132.824C110.004 133.608 109.028 134 107.812 134C105.556 134 104.428 132.256 104.428 128.768C104.428 126.832 104.788 125.368 105.508 124.376C106.244 123.384 107.292 122.888 108.652 122.888C109.292 122.888 109.932 123 110.572 123.224C110.78 122.936 111.068 122.792 111.436 122.792ZM108.94 124.976C108.028 124.976 107.348 125.24 106.9 125.768C106.452 126.296 106.228 127.264 106.228 128.672C106.228 131.04 106.868 132.224 108.148 132.224C108.484 132.224 108.852 132.072 109.252 131.768C109.668 131.464 109.956 131.12 110.116 130.736C110.42 129.872 110.572 128.928 110.572 127.904C110.572 126.88 110.444 126.136 110.188 125.672C109.948 125.208 109.532 124.976 108.94 124.976ZM122.707 132.92C122.707 133.672 122.363 134.048 121.675 134.048C121.387 134.048 120.995 133.344 120.499 131.936C120.003 130.512 119.339 129.416 118.507 128.648C118.427 128.76 118.083 129.08 117.475 129.608C116.883 130.12 116.531 130.432 116.419 130.544V132.944C116.387 133.184 116.347 133.368 116.299 133.496C116.251 133.624 116.139 133.744 115.963 133.856C115.803 133.968 115.579 134.024 115.291 134.024C114.859 134.024 114.643 133.76 114.643 133.232C114.643 131.744 114.579 129.44 114.451 126.32C114.323 123.184 114.259 120.376 114.259 117.896C114.259 117.592 114.379 117.352 114.619 117.176C114.875 117 115.139 116.912 115.411 116.912C115.779 116.912 116.003 117.144 116.083 117.608V121.856C116.083 122.368 116.091 122.752 116.107 123.008C116.123 123.264 116.139 123.648 116.155 124.16C116.187 125.216 116.243 126.408 116.323 127.736C116.787 127.384 117.379 126.832 118.099 126.08C118.835 125.312 119.387 124.656 119.755 124.112C120.331 123.2 120.859 122.744 121.339 122.744C121.467 122.744 121.595 122.776 121.723 122.84C122.059 123.032 122.227 123.256 122.227 123.512C122.227 123.768 122.115 124.104 121.891 124.52C121.315 125.512 120.651 126.416 119.899 127.232C120.619 128.032 121.339 129.176 122.059 130.664C122.491 131.624 122.707 132.376 122.707 132.92ZM127.556 122.888C128.404 122.888 129.212 123.136 129.98 123.632C130.748 124.128 131.132 124.744 131.132 125.48C131.132 126.2 130.82 126.904 130.196 127.592C129.572 128.264 128.74 128.672 127.7 128.816C127.252 128.88 126.58 128.912 125.684 128.912C125.86 130.272 126.204 131.168 126.715 131.6C126.876 131.776 127.092 131.864 127.364 131.864C128.356 131.864 129.188 131.552 129.86 130.928C130.532 130.288 131.012 129.968 131.3 129.968C131.428 129.968 131.62 130.088 131.876 130.328C132.132 130.568 132.26 130.792 132.26 131C132.26 131.416 131.756 132.016 130.748 132.8C130.3 133.168 129.756 133.48 129.116 133.736C128.492 133.976 127.908 134.096 127.364 134.096C125.972 134.096 124.948 133.2 124.292 131.408C123.876 130.304 123.668 129.088 123.668 127.76C123.668 126.432 123.98 125.288 124.604 124.328C125.228 123.368 126.212 122.888 127.556 122.888ZM127.676 124.544C127.068 124.544 126.548 124.888 126.116 125.576C125.956 125.816 125.804 126.36 125.66 127.208C127.9 127.208 129.02 126.656 129.02 125.552C129.02 124.88 128.572 124.544 127.676 124.544ZM139.601 125.84C139.601 124.896 139.937 124.144 140.609 123.584C141.281 123.024 142.057 122.744 142.937 122.744C143.833 122.744 144.689 122.904 145.505 123.224C146.321 123.544 146.729 123.968 146.729 124.496C146.729 124.768 146.625 124.984 146.417 125.144C146.209 125.304 146.025 125.384 145.865 125.384C145.721 125.384 145.601 125.384 145.505 125.384C145.425 125.368 145.105 125.216 144.545 124.928C144.001 124.64 143.497 124.496 143.033 124.496C142.569 124.496 142.169 124.616 141.833 124.856C141.513 125.08 141.353 125.416 141.353 125.864C141.353 126.312 141.537 126.664 141.905 126.92C142.289 127.176 142.953 127.4 143.897 127.592C144.841 127.768 145.561 128.024 146.057 128.36C146.569 128.696 146.825 129.32 146.825 130.232C146.825 131.56 146.473 132.504 145.769 133.064C145.081 133.608 144.241 133.88 143.249 133.88C142.257 133.88 141.409 133.744 140.705 133.472C140.017 133.2 139.673 132.792 139.673 132.248C139.673 131.624 139.985 131.312 140.609 131.312C140.769 131.312 141.121 131.424 141.665 131.648C142.209 131.872 142.745 131.984 143.273 131.984C143.817 131.984 144.225 131.816 144.497 131.48C144.785 131.128 144.929 130.728 144.929 130.28C144.929 129.832 144.745 129.512 144.377 129.32C144.009 129.112 143.449 128.944 142.697 128.816C141.945 128.688 141.393 128.552 141.041 128.408C140.081 128.024 139.601 127.168 139.601 125.84ZM148.38 123.728C148.444 123.456 148.58 123.232 148.788 123.056C148.996 122.864 149.204 122.768 149.412 122.768C149.636 122.768 149.804 122.808 149.916 122.888C150.044 122.968 150.116 123.04 150.132 123.104C150.164 123.168 150.196 123.28 150.228 123.44C150.132 124.688 150.084 125.816 150.084 126.824C150.084 127.816 150.204 128.96 150.444 130.256C150.684 131.536 150.948 132.176 151.236 132.176C151.668 132.176 152.212 131.936 152.868 131.456C153.54 130.976 154.02 130.472 154.308 129.944C154.116 127.64 154.02 125.664 154.02 124.016C154.02 123.68 154.124 123.392 154.332 123.152C154.556 122.912 154.82 122.792 155.124 122.792C155.62 122.792 155.868 123.128 155.868 123.8C155.868 124.936 155.948 126.624 156.108 128.864C156.284 131.104 156.46 132.528 156.636 133.136C156.668 133.264 156.684 133.416 156.684 133.592C156.684 133.752 156.572 133.904 156.348 134.048C156.14 134.208 155.86 134.288 155.508 134.288C155.172 134.288 154.948 134.096 154.836 133.712C154.804 133.392 154.724 132.912 154.596 132.272C153.476 133.44 152.348 134.024 151.212 134.024C150.684 134.024 150.212 133.824 149.796 133.424C149.38 133.024 149.052 132.48 148.812 131.792C148.396 130.464 148.188 129.216 148.188 128.048C148.188 126.88 148.252 125.44 148.38 123.728ZM161.133 130.496L161.157 132.968C161.157 133.256 161.021 133.52 160.749 133.76C160.493 134 160.237 134.12 159.981 134.12C159.613 134.12 159.381 133.832 159.285 133.256C159.269 133.128 159.205 131.96 159.093 129.752C158.981 127.528 158.765 125.784 158.445 124.52C158.301 123.912 158.229 123.552 158.229 123.44C158.229 122.912 158.549 122.648 159.189 122.648C159.461 122.648 159.677 122.752 159.837 122.96C159.997 123.168 160.093 123.384 160.125 123.608C160.173 123.816 160.213 124.104 160.245 124.472C160.277 124.84 160.301 125.072 160.317 125.168C160.653 124.368 161.157 123.768 161.829 123.368C162.501 122.968 163.237 122.768 164.037 122.768C165.349 122.768 166.005 123.104 166.005 123.776C166.005 124.112 165.885 124.384 165.645 124.592C165.421 124.784 165.157 124.88 164.853 124.88C163.493 124.88 162.533 125.312 161.973 126.176C161.413 127.04 161.133 128.48 161.133 130.496ZM170.727 122.888C171.575 122.888 172.383 123.136 173.151 123.632C173.919 124.128 174.303 124.744 174.303 125.48C174.303 126.2 173.991 126.904 173.367 127.592C172.743 128.264 171.911 128.672 170.871 128.816C170.423 128.88 169.751 128.912 168.855 128.912C169.031 130.272 169.375 131.168 169.887 131.6C170.047 131.776 170.263 131.864 170.535 131.864C171.527 131.864 172.359 131.552 173.031 130.928C173.703 130.288 174.183 129.968 174.471 129.968C174.599 129.968 174.791 130.088 175.047 130.328C175.303 130.568 175.431 130.792 175.431 131C175.431 131.416 174.927 132.016 173.919 132.8C173.471 133.168 172.927 133.48 172.287 133.736C171.663 133.976 171.079 134.096 170.535 134.096C169.143 134.096 168.119 133.2 167.463 131.408C167.047 130.304 166.839 129.088 166.839 127.76C166.839 126.432 167.151 125.288 167.775 124.328C168.399 123.368 169.383 122.888 170.727 122.888ZM170.847 124.544C170.239 124.544 169.719 124.888 169.287 125.576C169.127 125.816 168.975 126.36 168.831 127.208C171.071 127.208 172.191 126.656 172.191 125.552C172.191 124.88 171.743 124.544 170.847 124.544ZM184.093 123.944C184.445 123.944 184.749 124.072 185.005 124.328C185.277 124.584 185.437 124.936 185.485 125.384C185.485 125.736 185.349 126.064 185.077 126.368C184.821 126.656 184.525 126.8 184.189 126.8C183.853 126.8 183.549 126.704 183.277 126.512C183.005 126.32 182.869 126.04 182.869 125.672C182.869 125.288 182.989 124.904 183.229 124.52C183.469 124.136 183.757 123.944 184.093 123.944ZM184.429 131.288C184.557 131.288 184.717 131.328 184.909 131.408C185.021 131.472 185.141 131.648 185.269 131.936C185.413 132.224 185.485 132.512 185.485 132.8C185.485 133.088 185.349 133.36 185.077 133.616C184.805 133.856 184.501 133.976 184.165 133.976C183.829 133.976 183.549 133.856 183.325 133.616C183.117 133.36 183.013 133.04 183.013 132.656C183.013 131.744 183.485 131.288 184.429 131.288ZM194.111 124.976C194.111 127.088 193.911 128.752 193.511 129.968C193.127 131.184 192.359 132.584 191.207 134.168C190.631 134.952 190.239 135.416 190.031 135.56C189.823 135.704 189.599 135.776 189.359 135.776C189.135 135.776 188.927 135.688 188.735 135.512C188.543 135.352 188.447 135.184 188.447 135.008C188.447 134.96 188.879 134.312 189.743 133.064C190.623 131.816 191.215 130.888 191.519 130.28C191.823 129.672 192.031 128.904 192.143 127.976C192.255 127.032 192.311 125.992 192.311 124.856C192.311 123.704 192.127 122.44 191.759 121.064C191.407 119.672 191.015 118.744 190.583 118.28C189.175 116.824 188.471 115.888 188.471 115.472C188.471 115.328 188.583 115.208 188.807 115.112C189.047 115.016 189.311 114.968 189.599 114.968C189.903 114.968 190.111 115.04 190.223 115.184C191.743 116.704 192.767 118.192 193.295 119.648C193.839 121.088 194.111 122.864 194.111 124.976Z" fill="#326BFF"/>
<path d="M18.5952 7.52576C18.3048 6.74989 18.6984 5.88553 19.4742 5.59516L32.1178 0.863219C32.8936 0.572844 33.758 0.966415 34.0484 1.74228C34.3387 2.51815 33.9452 3.38252 33.1693 3.67289L21.9306 7.87906L26.1368 19.1177C26.4272 19.8936 26.0336 20.758 25.2577 21.0484C24.4818 21.3387 23.6175 20.9452 23.3271 20.1693L18.5952 7.52576ZM86.5006 52.7985L85.3309 53.7375L86.5006 52.7985ZM95.5 63C95.5 63.8284 94.8284 64.5 94 64.5C93.1716 64.5 92.5 63.8284 92.5 63L95.5 63ZM20.6216 5.63485C46.2781 17.3171 71.3438 31.5228 87.6703 51.8594L85.3309 53.7375C69.4696 33.9804 44.9584 20.0125 19.3784 8.36514L20.6216 5.63485ZM87.6703 51.8594C88.0949 52.3883 88.7487 53.0753 89.5565 53.9168C90.3426 54.7357 91.2457 55.6721 92.0909 56.6359C92.9328 57.5959 93.7579 58.6284 94.379 59.655C94.981 60.6501 95.5 61.8136 95.5 63L92.5 63C92.5 62.6367 92.3192 62.0461 91.8121 61.2079C91.324 60.4011 90.6307 59.5209 89.8354 58.6139C89.0434 57.7108 88.1904 56.8258 87.3922 55.9943C86.6156 55.1853 85.8568 54.3925 85.3309 53.7375L87.6703 51.8594Z" fill="#326BFF"/>
</svg>
