<svg width="124" height="26" viewBox="0 0 124 26" fill="none" xmlns="http://www.w3.org/2000/svg">
<path d="M7.608 6.792C8.312 6.792 8.664 7.392 8.664 8.592C8.664 8.72 8.664 8.856 8.664 9L8.616 10.68C8.6 11.208 8.592 11.728 8.592 12.24L8.952 17.664C8.952 18.064 8.544 18.264 7.728 18.264C7.68 18.264 7.56 18.264 7.368 18.264C7.192 18.264 7.064 18.192 6.984 18.048C6.92 17.904 6.912 17.728 6.96 17.52C7.024 17.312 7.008 17.08 6.912 16.824C6.176 17.608 5.2 18 3.984 18C1.728 18 0.6 16.256 0.6 12.768C0.6 10.832 0.96 9.368 1.68 8.376C2.416 7.384 3.464 6.888 4.824 6.888C5.464 6.888 6.104 7 6.744 7.224C6.952 6.936 7.24 6.792 7.608 6.792ZM5.112 8.976C4.2 8.976 3.52 9.24 3.072 9.768C2.624 10.296 2.4 11.264 2.4 12.672C2.4 15.04 3.04 16.224 4.32 16.224C4.656 16.224 5.024 16.072 5.424 15.768C5.84 15.464 6.128 15.12 6.288 14.736C6.592 13.872 6.744 12.928 6.744 11.904C6.744 10.88 6.616 10.136 6.36 9.672C6.12 9.208 5.704 8.976 5.112 8.976ZM11.2224 17.256L10.9584 7.512C10.9584 7.208 11.0624 6.96 11.2704 6.768C11.4784 6.576 11.6864 6.48 11.8944 6.48C12.4064 6.48 12.7024 6.696 12.7824 7.128C12.8464 7.56 12.8784 8.008 12.8784 8.472C13.7424 7.336 14.8224 6.768 16.1184 6.768C18.1024 6.768 19.0944 9.032 19.0944 13.56C19.0944 13.976 19.0944 14.608 19.0944 15.456C19.0944 16.288 19.0464 16.896 18.9504 17.28C18.8384 17.76 18.4944 18 17.9184 18C17.5344 18 17.3424 17.744 17.3424 17.232L17.3664 15.888C17.3664 14.032 17.3024 12.768 17.1744 12.096C17.0624 11.408 16.9504 10.864 16.8384 10.464C16.5664 9.6 16.1264 9.168 15.5184 9.168C14.7184 9.168 14.1584 9.456 13.8384 10.032C13.4864 10.656 13.2784 11.392 13.2144 12.24C13.1024 13.728 13.0464 15.304 13.0464 16.968C13.0464 17.288 12.9264 17.544 12.6864 17.736C12.4464 17.928 12.1584 18.024 11.8224 18.024C11.4224 18.024 11.2224 17.768 11.2224 17.256ZM26.898 6.768L26.874 2.136C26.874 1.272 27.146 0.839999 27.69 0.839999C28.25 0.839999 28.562 1.08 28.626 1.56C28.658 1.768 28.698 3.024 28.746 5.328C28.794 7.632 28.866 9.792 28.962 11.808C29.074 13.824 29.13 15.704 29.13 17.448C29.13 17.928 28.77 18.168 28.05 18.168C27.57 18.168 27.33 17.832 27.33 17.16C26.642 17.704 25.826 17.976 24.882 17.976C23.682 17.976 22.706 17.528 21.954 16.632C21.218 15.736 20.85 14.632 20.85 13.32C20.85 12.008 21.114 10.784 21.642 9.648C22.186 8.496 23.026 7.672 24.162 7.176C24.866 6.872 25.546 6.72 26.202 6.72C26.442 6.72 26.674 6.736 26.898 6.768ZM27.018 10.056C26.906 9.704 26.77 9.44 26.61 9.264C26.45 9.072 26.274 8.96 26.082 8.928C25.906 8.88 25.69 8.856 25.434 8.856C25.178 8.856 24.866 8.952 24.498 9.144C24.13 9.336 23.818 9.648 23.562 10.08C23.05 10.944 22.794 11.856 22.794 12.816C22.794 13.76 22.978 14.536 23.346 15.144C23.73 15.736 24.266 16.032 24.954 16.032C25.658 16.032 26.21 15.688 26.61 15C27.01 14.312 27.21 13.432 27.21 12.36C27.21 11.16 27.146 10.392 27.018 10.056ZM41.7808 6.768L41.7568 2.136C41.7568 1.272 42.0288 0.839999 42.5728 0.839999C43.1328 0.839999 43.4448 1.08 43.5088 1.56C43.5408 1.768 43.5808 3.024 43.6288 5.328C43.6768 7.632 43.7488 9.792 43.8448 11.808C43.9568 13.824 44.0128 15.704 44.0128 17.448C44.0128 17.928 43.6528 18.168 42.9328 18.168C42.4528 18.168 42.2128 17.832 42.2128 17.16C41.5248 17.704 40.7088 17.976 39.7648 17.976C38.5648 17.976 37.5888 17.528 36.8368 16.632C36.1008 15.736 35.7328 14.632 35.7328 13.32C35.7328 12.008 35.9968 10.784 36.5248 9.648C37.0688 8.496 37.9088 7.672 39.0448 7.176C39.7488 6.872 40.4288 6.72 41.0848 6.72C41.3248 6.72 41.5568 6.736 41.7808 6.768ZM41.9008 10.056C41.7888 9.704 41.6528 9.44 41.4928 9.264C41.3328 9.072 41.1568 8.96 40.9648 8.928C40.7888 8.88 40.5728 8.856 40.3168 8.856C40.0608 8.856 39.7488 8.952 39.3808 9.144C39.0128 9.336 38.7008 9.648 38.4448 10.08C37.9328 10.944 37.6768 11.856 37.6768 12.816C37.6768 13.76 37.8608 14.536 38.2288 15.144C38.6128 15.736 39.1488 16.032 39.8368 16.032C40.5408 16.032 41.0928 15.688 41.4928 15C41.8928 14.312 42.0928 13.432 42.0928 12.36C42.0928 11.16 42.0288 10.392 41.9008 10.056ZM48.8524 6.888C49.7004 6.888 50.5084 7.136 51.2764 7.632C52.0444 8.128 52.4284 8.744 52.4284 9.48C52.4284 10.2 52.1164 10.904 51.4924 11.592C50.8684 12.264 50.0364 12.672 48.9964 12.816C48.5484 12.88 47.8764 12.912 46.9804 12.912C47.1564 14.272 47.5004 15.168 48.0124 15.6C48.1724 15.776 48.3884 15.864 48.6604 15.864C49.6524 15.864 50.4844 15.552 51.1564 14.928C51.8284 14.288 52.3084 13.968 52.5964 13.968C52.7244 13.968 52.9164 14.088 53.1724 14.328C53.4284 14.568 53.5564 14.792 53.5564 15C53.5564 15.416 53.0524 16.016 52.0444 16.8C51.5964 17.168 51.0524 17.48 50.4124 17.736C49.7884 17.976 49.2044 18.096 48.6604 18.096C47.2684 18.096 46.2444 17.2 45.5884 15.408C45.1724 14.304 44.9644 13.088 44.9644 11.76C44.9644 10.432 45.2764 9.288 45.9004 8.328C46.5244 7.368 47.5084 6.888 48.8524 6.888ZM48.9724 8.544C48.3644 8.544 47.8444 8.888 47.4124 9.576C47.2524 9.816 47.1004 10.36 46.9564 11.208C49.1964 11.208 50.3164 10.656 50.3164 9.552C50.3164 8.88 49.8684 8.544 48.9724 8.544ZM54.8869 2.472C54.9349 1.864 55.0309 1.472 55.1749 1.296C55.3349 1.104 55.5829 1.008 55.9189 1.008C56.6069 1.008 56.9509 1.288 56.9509 1.848C56.9509 2.28 56.9109 3.408 56.8309 5.232C56.7669 7.056 56.7349 8.688 56.7349 10.128C56.7349 11.568 56.7909 12.728 56.9029 13.608C57.0949 15.144 57.3669 15.912 57.7189 15.912C58.0709 15.912 58.3349 15.664 58.5109 15.168C58.5909 14.976 58.7189 14.808 58.8949 14.664C59.0709 14.504 59.2949 14.424 59.5669 14.424C60.1269 14.424 60.4069 14.896 60.4069 15.84C60.4069 16.352 60.1269 16.864 59.5669 17.376C59.0229 17.872 58.4789 18.12 57.9349 18.12C57.3909 18.12 56.9509 18.032 56.6149 17.856C56.2949 17.664 56.0309 17.384 55.8229 17.016C55.6309 16.648 55.4709 16.296 55.3429 15.96C55.2309 15.608 55.1509 15.184 55.1029 14.688C55.0069 13.888 54.9349 12.608 54.8869 10.848C54.8549 9.072 54.8389 7.384 54.8389 5.784C54.8389 4.168 54.8549 3.064 54.8869 2.472ZM62.9179 2.832C63.2059 2.832 63.4779 2.968 63.7339 3.24C63.9899 3.512 64.1179 3.8 64.1179 4.104C64.1179 4.392 63.9739 4.688 63.6859 4.992C63.4139 5.296 63.1259 5.448 62.8219 5.448C62.5179 5.448 62.2379 5.32 61.9819 5.064C61.7419 4.808 61.6219 4.48 61.6219 4.08C61.6219 3.312 62.0379 2.896 62.8699 2.832C62.8859 2.832 62.9019 2.832 62.9179 2.832ZM63.9259 15.408L63.9499 17.088C63.9499 17.392 63.8299 17.648 63.5899 17.856C63.3499 18.048 63.0939 18.144 62.8219 18.144C62.4219 18.144 62.2139 17.944 62.1979 17.544C61.9899 12.44 61.8859 9.616 61.8859 9.072C61.8859 8.528 61.9099 7.864 61.9579 7.08C61.9899 6.792 62.1739 6.648 62.5099 6.648C63.3579 6.648 63.8379 6.992 63.9499 7.68C63.9979 8.032 64.0219 8.312 64.0219 8.52L63.9259 10.032V15.408ZM73.5891 17.016C73.0131 17.688 72.2851 18.024 71.4051 18.024C70.5251 18.024 69.7651 17.752 69.1251 17.208C67.7811 16.168 67.1091 14.576 67.1091 12.432C67.1091 10.752 67.5731 9.408 68.5011 8.4C69.4291 7.376 70.5731 6.864 71.9331 6.864C73.2931 6.864 74.2211 7.328 74.7171 8.256C75.1491 9.072 75.3651 10.304 75.3651 11.952L75.3171 13.92C75.3171 14.848 75.3571 16.136 75.4371 17.784C75.5331 19.416 75.5811 20.648 75.5811 21.48C75.5811 22.856 75.2371 23.864 74.5491 24.504C73.8771 25.16 72.8451 25.488 71.4531 25.488C70.6211 25.488 69.7731 25.312 68.9091 24.96C68.0451 24.608 67.6131 24.2 67.6131 23.736C67.6131 23.4 67.7011 23.144 67.8771 22.968C68.0691 22.792 68.2851 22.704 68.5251 22.704C68.7651 22.704 69.3011 22.88 70.1331 23.232C70.9811 23.584 71.5891 23.76 71.9571 23.76C73.1091 23.76 73.6851 22.816 73.6851 20.928C73.6851 19.04 73.6531 17.736 73.5891 17.016ZM73.5651 11.952C73.5651 10.784 73.3891 9.968 73.0371 9.504C72.7011 9.024 72.1651 8.784 71.4291 8.784C70.6931 8.784 70.1011 9.12 69.6531 9.792C69.2051 10.464 68.9811 11.32 68.9811 12.36C68.9811 13.384 69.1891 14.2 69.6051 14.808C70.0371 15.416 70.6931 15.72 71.5731 15.72C72.4531 15.72 73.0211 15.344 73.2771 14.592C73.4691 13.984 73.5651 13.104 73.5651 11.952ZM79.9566 10.224L80.1486 15.888C80.1486 16.592 80.1166 17 80.0526 17.112C80.0206 17.4 79.9246 17.624 79.7646 17.784C79.6206 17.944 79.3326 18.024 78.9006 18.024C78.6926 18.024 78.5246 17.896 78.3966 17.64C78.2686 17.368 78.1966 17.064 78.1806 16.728C78.0686 13.912 77.9166 11.272 77.7246 8.808C77.5486 6.328 77.4606 4.024 77.4606 1.896C77.4606 1.56 77.5726 1.296 77.7966 1.104C78.0206 0.911999 78.2846 0.816 78.5886 0.816C79.0366 0.816 79.3006 1.2 79.3806 1.968C79.4766 2.736 79.5326 3.696 79.5486 4.848C79.5806 6 79.6126 6.84 79.6446 7.368C80.4446 6.952 81.2446 6.744 82.0446 6.744C83.9006 6.744 85.0766 7.56 85.5726 9.192C85.8606 10.12 86.0046 11.312 86.0046 12.768C86.0046 13.248 85.9566 14.008 85.8606 15.048C85.7806 16.072 85.7326 16.736 85.7166 17.04C85.7006 17.344 85.5646 17.584 85.3086 17.76C85.0686 17.92 84.8046 18 84.5166 18C84.0686 18 83.8446 17.76 83.8446 17.28L84.0126 13.104C84.0126 12.752 83.9966 12.168 83.9646 11.352C83.9326 10.536 83.7646 9.888 83.4606 9.408C83.1726 8.928 82.6606 8.688 81.9246 8.688C80.6126 8.688 79.9566 9.2 79.9566 10.224ZM88.0667 6.792L89.2667 6.816C89.5387 6.816 89.6907 6.808 89.7227 6.792V1.872C89.7387 1.6 89.8747 1.368 90.1307 1.176C90.3867 0.983999 90.6267 0.887999 90.8507 0.887999C91.0747 0.887999 91.2507 0.959999 91.3787 1.104C91.5227 1.248 91.5867 1.472 91.5707 1.776C91.5547 2.08 91.5467 3.744 91.5467 6.768L94.3547 6.672C94.8347 6.672 95.0747 6.952 95.0747 7.512C95.0747 7.928 94.9467 8.24 94.6907 8.448C94.4507 8.656 94.1867 8.768 93.8987 8.784C93.6267 8.8 93.3547 8.808 93.0827 8.808L91.6187 8.784C91.6187 9.44 91.6827 10.736 91.8107 12.672C91.9547 14.608 92.0667 15.864 92.1467 16.44C92.2267 17 92.2427 17.368 92.1947 17.544C92.1467 17.704 92.0587 17.816 91.9307 17.88C91.7227 17.976 91.4427 18.024 91.0907 18.024C90.7387 18.024 90.5307 17.832 90.4667 17.448C90.1467 15.352 89.9307 12.472 89.8187 8.808C89.6747 8.824 89.1227 8.832 88.1627 8.832C87.2027 8.832 86.7227 8.552 86.7227 7.992C86.7227 7.192 87.1707 6.792 88.0667 6.792ZM98.9807 1.2C99.2367 1.008 99.4527 0.903999 99.6287 0.887999C99.8207 0.855999 100.245 0.839999 100.901 0.839999C101.573 0.839999 102.125 0.935999 102.557 1.128C102.989 1.32 103.205 1.704 103.205 2.28C103.205 2.856 102.973 3.144 102.509 3.144C102.413 3.144 102.141 3.064 101.693 2.904C101.245 2.728 100.957 2.64 100.829 2.64C100.269 2.64 99.9327 2.976 99.8207 3.648C99.7887 3.888 99.7727 4.384 99.7727 5.136C99.7727 5.872 99.7727 6.48 99.7727 6.96H101.453C102.157 6.992 102.509 7.24 102.509 7.704C102.509 8.376 102.029 8.728 101.069 8.76C100.925 8.776 100.749 8.784 100.541 8.784C100.333 8.784 100.093 8.776 99.8207 8.76C99.8527 9.4 99.9247 10.544 100.037 12.192C100.149 13.824 100.205 15.416 100.205 16.968C100.205 17.288 100.077 17.544 99.8207 17.736C99.5647 17.928 99.3007 18.024 99.0287 18.024C98.5967 18.024 98.3807 17.768 98.3807 17.256C98.3807 15.816 98.3247 14.416 98.2127 13.056C98.1007 11.696 98.0207 10.264 97.9727 8.76C96.5327 8.76 95.6927 8.616 95.4527 8.328C95.3567 8.216 95.3087 8.072 95.3087 7.896C95.3087 7.48 95.4767 7.208 95.8127 7.08C96.1647 6.952 96.5647 6.888 97.0127 6.888C97.4607 6.888 97.7807 6.888 97.9727 6.888C98.0207 4.28 98.1647 2.664 98.4047 2.04C98.5487 1.656 98.7407 1.376 98.9807 1.2ZM104.294 7.728C104.358 7.456 104.494 7.232 104.702 7.056C104.91 6.864 105.118 6.768 105.326 6.768C105.55 6.768 105.718 6.808 105.83 6.888C105.958 6.968 106.03 7.04 106.046 7.104C106.078 7.168 106.11 7.28 106.142 7.44C106.046 8.688 105.998 9.816 105.998 10.824C105.998 11.816 106.118 12.96 106.358 14.256C106.598 15.536 106.862 16.176 107.15 16.176C107.582 16.176 108.126 15.936 108.782 15.456C109.454 14.976 109.934 14.472 110.222 13.944C110.03 11.64 109.934 9.664 109.934 8.016C109.934 7.68 110.038 7.392 110.246 7.152C110.47 6.912 110.734 6.792 111.038 6.792C111.534 6.792 111.782 7.128 111.782 7.8C111.782 8.936 111.862 10.624 112.022 12.864C112.198 15.104 112.374 16.528 112.55 17.136C112.582 17.264 112.598 17.416 112.598 17.592C112.598 17.752 112.486 17.904 112.262 18.048C112.054 18.208 111.774 18.288 111.422 18.288C111.086 18.288 110.862 18.096 110.75 17.712C110.718 17.392 110.638 16.912 110.51 16.272C109.39 17.44 108.262 18.024 107.126 18.024C106.598 18.024 106.126 17.824 105.71 17.424C105.294 17.024 104.966 16.48 104.726 15.792C104.31 14.464 104.102 13.216 104.102 12.048C104.102 10.88 104.166 9.44 104.294 7.728ZM113.879 2.472C113.927 1.864 114.023 1.472 114.167 1.296C114.327 1.104 114.575 1.008 114.911 1.008C115.599 1.008 115.943 1.288 115.943 1.848C115.943 2.28 115.903 3.408 115.823 5.232C115.759 7.056 115.727 8.688 115.727 10.128C115.727 11.568 115.783 12.728 115.895 13.608C116.087 15.144 116.359 15.912 116.711 15.912C117.063 15.912 117.327 15.664 117.503 15.168C117.583 14.976 117.711 14.808 117.887 14.664C118.063 14.504 118.287 14.424 118.559 14.424C119.119 14.424 119.399 14.896 119.399 15.84C119.399 16.352 119.119 16.864 118.559 17.376C118.015 17.872 117.471 18.12 116.927 18.12C116.383 18.12 115.943 18.032 115.607 17.856C115.287 17.664 115.023 17.384 114.815 17.016C114.623 16.648 114.463 16.296 114.335 15.96C114.223 15.608 114.143 15.184 114.095 14.688C113.999 13.888 113.927 12.608 113.879 10.848C113.847 9.072 113.831 7.384 113.831 5.784C113.831 4.168 113.847 3.064 113.879 2.472ZM123.35 1.488L123.134 9.672C123.134 10.552 123.142 11.128 123.158 11.4C123.094 11.608 122.966 11.792 122.774 11.952C122.598 12.112 122.398 12.192 122.174 12.192C121.95 12.192 121.766 12.016 121.622 11.664C121.382 7.632 121.262 4.24 121.262 1.488C121.406 1.088 121.774 0.887999 122.366 0.887999C122.958 0.887999 123.286 1.088 123.35 1.488ZM121.694 16.848C121.454 16.56 121.334 16.272 121.334 15.984C121.334 15.696 121.446 15.432 121.67 15.192C121.894 14.952 122.19 14.832 122.558 14.832C122.942 14.832 123.214 14.904 123.374 15.048C123.55 15.192 123.638 15.504 123.638 15.984C123.638 16.832 123.286 17.256 122.582 17.256C122.23 17.256 121.934 17.12 121.694 16.848Z" fill="#326BFF"/>
</svg>
