<svg width="161" height="27" viewBox="0 0 161 27" fill="none" xmlns="http://www.w3.org/2000/svg">
<path d="M1.512 7.792L2.712 7.816C2.984 7.816 3.136 7.808 3.168 7.792V2.872C3.184 2.6 3.32 2.368 3.576 2.176C3.832 1.984 4.072 1.888 4.296 1.888C4.52 1.888 4.696 1.96 4.824 2.104C4.968 2.248 5.032 2.472 5.016 2.776C5 3.08 4.992 4.744 4.992 7.768L7.8 7.672C8.28 7.672 8.52 7.952 8.52 8.512C8.52 8.928 8.392 9.24 8.136 9.448C7.896 9.656 7.632 9.768 7.344 9.784C7.072 9.8 6.8 9.808 6.528 9.808L5.064 9.784C5.064 10.44 5.128 11.736 5.256 13.672C5.4 15.608 5.512 16.864 5.592 17.44C5.672 18 5.688 18.368 5.64 18.544C5.592 18.704 5.504 18.816 5.376 18.88C5.168 18.976 4.888 19.024 4.536 19.024C4.184 19.024 3.976 18.832 3.912 18.448C3.592 16.352 3.376 13.472 3.264 9.808C3.12 9.824 2.568 9.832 1.608 9.832C0.648 9.832 0.168 9.552 0.168 8.992C0.168 8.192 0.616 7.792 1.512 7.792ZM11.73 11.224L11.922 16.888C11.922 17.592 11.89 18 11.826 18.112C11.794 18.4 11.698 18.624 11.538 18.784C11.394 18.944 11.106 19.024 10.674 19.024C10.466 19.024 10.298 18.896 10.17 18.64C10.042 18.368 9.97 18.064 9.954 17.728C9.842 14.912 9.69 12.272 9.498 9.808C9.322 7.328 9.234 5.024 9.234 2.896C9.234 2.56 9.346 2.296 9.57 2.104C9.794 1.912 10.058 1.816 10.362 1.816C10.81 1.816 11.074 2.2 11.154 2.968C11.25 3.736 11.306 4.696 11.322 5.848C11.354 7 11.386 7.84 11.418 8.368C12.218 7.952 13.018 7.744 13.818 7.744C15.674 7.744 16.85 8.56 17.346 10.192C17.634 11.12 17.778 12.312 17.778 13.768C17.778 14.248 17.73 15.008 17.634 16.048C17.554 17.072 17.506 17.736 17.49 18.04C17.474 18.344 17.338 18.584 17.082 18.76C16.842 18.92 16.578 19 16.29 19C15.842 19 15.618 18.76 15.618 18.28L15.786 14.104C15.786 13.752 15.77 13.168 15.738 12.352C15.706 11.536 15.538 10.888 15.234 10.408C14.946 9.928 14.434 9.688 13.698 9.688C12.386 9.688 11.73 10.2 11.73 11.224ZM25.9361 7.792C26.6401 7.792 26.9921 8.392 26.9921 9.592C26.9921 9.72 26.9921 9.856 26.9921 10L26.9441 11.68C26.9281 12.208 26.9201 12.728 26.9201 13.24L27.2801 18.664C27.2801 19.064 26.8721 19.264 26.0561 19.264C26.0081 19.264 25.8881 19.264 25.6961 19.264C25.5201 19.264 25.3921 19.192 25.3121 19.048C25.2481 18.904 25.2401 18.728 25.2881 18.52C25.3521 18.312 25.3361 18.08 25.2401 17.824C24.5041 18.608 23.5281 19 22.3121 19C20.0561 19 18.9281 17.256 18.9281 13.768C18.9281 11.832 19.2881 10.368 20.0081 9.376C20.7441 8.384 21.7921 7.888 23.1521 7.888C23.7921 7.888 24.4321 8 25.0721 8.224C25.2801 7.936 25.5681 7.792 25.9361 7.792ZM23.4401 9.976C22.5281 9.976 21.8481 10.24 21.4001 10.768C20.9521 11.296 20.7281 12.264 20.7281 13.672C20.7281 16.04 21.3681 17.224 22.6481 17.224C22.9841 17.224 23.3521 17.072 23.7521 16.768C24.1681 16.464 24.4561 16.12 24.6161 15.736C24.9201 14.872 25.0721 13.928 25.0721 12.904C25.0721 11.88 24.9441 11.136 24.6881 10.672C24.4481 10.208 24.0321 9.976 23.4401 9.976ZM29.2386 7.792L30.4386 7.816C30.7106 7.816 30.8626 7.808 30.8946 7.792V2.872C30.9106 2.6 31.0466 2.368 31.3026 2.176C31.5586 1.984 31.7986 1.888 32.0226 1.888C32.2466 1.888 32.4226 1.96 32.5506 2.104C32.6946 2.248 32.7586 2.472 32.7426 2.776C32.7266 3.08 32.7186 4.744 32.7186 7.768L35.5266 7.672C36.0066 7.672 36.2466 7.952 36.2466 8.512C36.2466 8.928 36.1186 9.24 35.8626 9.448C35.6226 9.656 35.3586 9.768 35.0706 9.784C34.7986 9.8 34.5266 9.808 34.2546 9.808L32.7906 9.784C32.7906 10.44 32.8546 11.736 32.9826 13.672C33.1266 15.608 33.2386 16.864 33.3186 17.44C33.3986 18 33.4146 18.368 33.3666 18.544C33.3186 18.704 33.2306 18.816 33.1026 18.88C32.8946 18.976 32.6146 19.024 32.2626 19.024C31.9106 19.024 31.7026 18.832 31.6386 18.448C31.3186 16.352 31.1026 13.472 30.9906 9.808C30.8466 9.824 30.2946 9.832 29.3346 9.832C28.3746 9.832 27.8946 9.552 27.8946 8.992C27.8946 8.192 28.3426 7.792 29.2386 7.792ZM37.8726 1.528C37.8726 1.304 37.9526 1.12 38.1126 0.975999C38.2886 0.831999 38.4806 0.759999 38.6886 0.759999C38.9126 0.759999 39.1126 0.839999 39.2886 0.999999C39.4806 1.144 39.5766 1.344 39.5766 1.6C39.5766 2.48 39.4166 3.328 39.0966 4.144C38.7766 4.96 38.3526 5.368 37.8246 5.368C37.2966 5.368 37.0326 5.096 37.0326 4.552C37.0326 4.328 37.1686 3.928 37.4406 3.352C37.7286 2.776 37.8726 2.168 37.8726 1.528ZM42.57 10.84C42.57 9.896 42.906 9.144 43.578 8.584C44.25 8.024 45.026 7.744 45.906 7.744C46.802 7.744 47.658 7.904 48.474 8.224C49.29 8.544 49.698 8.968 49.698 9.496C49.698 9.768 49.594 9.984 49.386 10.144C49.178 10.304 48.994 10.384 48.834 10.384C48.69 10.384 48.57 10.384 48.474 10.384C48.394 10.368 48.074 10.216 47.514 9.928C46.97 9.64 46.466 9.496 46.002 9.496C45.538 9.496 45.138 9.616 44.802 9.856C44.482 10.08 44.322 10.416 44.322 10.864C44.322 11.312 44.506 11.664 44.874 11.92C45.258 12.176 45.922 12.4 46.866 12.592C47.81 12.768 48.53 13.024 49.026 13.36C49.538 13.696 49.794 14.32 49.794 15.232C49.794 16.56 49.442 17.504 48.738 18.064C48.05 18.608 47.21 18.88 46.218 18.88C45.226 18.88 44.378 18.744 43.674 18.472C42.986 18.2 42.642 17.792 42.642 17.248C42.642 16.624 42.954 16.312 43.578 16.312C43.738 16.312 44.09 16.424 44.634 16.648C45.178 16.872 45.714 16.984 46.242 16.984C46.786 16.984 47.194 16.816 47.466 16.48C47.754 16.128 47.898 15.728 47.898 15.28C47.898 14.832 47.714 14.512 47.346 14.32C46.978 14.112 46.418 13.944 45.666 13.816C44.914 13.688 44.362 13.552 44.01 13.408C43.05 13.024 42.57 12.168 42.57 10.84ZM58.2956 19.024C57.8796 19.024 57.6316 18.792 57.5516 18.328C57.5516 15.096 57.3596 12.216 56.9756 9.688C56.9756 9.368 57.0876 9.08 57.3116 8.824C57.5516 8.568 57.8156 8.44 58.1036 8.44C58.4076 8.44 58.6316 8.608 58.7756 8.944C59.3676 8.16 60.1596 7.768 61.1516 7.768C62.4156 7.768 63.3916 8.376 64.0796 9.592C64.8796 8.44 65.9356 7.864 67.2476 7.864C68.5756 7.864 69.5676 8.392 70.2236 9.448C70.6556 10.104 70.9596 10.968 71.1356 12.04C71.3116 13.112 71.3996 14.632 71.3996 16.6C71.3996 17.368 71.3196 17.968 71.1596 18.4C70.9996 18.816 70.6636 19.024 70.1516 19.024C69.7356 19.024 69.5276 18.76 69.5276 18.232L69.5996 15.232C69.5996 11.632 68.6636 9.832 66.7916 9.832C66.1996 9.832 65.7836 10.04 65.5436 10.456C65.2716 10.952 65.1116 11.472 65.0636 12.016C64.9996 12.976 64.9676 13.848 64.9676 14.632V18.112C64.9676 18.368 64.8396 18.584 64.5836 18.76C64.3276 18.936 64.0636 19.024 63.7916 19.024C63.4396 19.024 63.2156 18.792 63.1196 18.328L63.1916 13.36C63.1916 11.6 62.8956 10.504 62.3036 10.072C62.0156 9.864 61.5756 9.76 60.9836 9.76C60.4076 9.76 59.9756 9.976 59.6876 10.408C59.4156 10.84 59.2796 11.536 59.2796 12.496L59.4236 16.96C59.4236 18.336 59.0476 19.024 58.2956 19.024ZM80.8961 7.912C81.1041 7.912 81.3041 7.984 81.4961 8.128C81.7041 8.272 81.8081 8.432 81.8081 8.608C81.8081 9.072 81.1281 11.584 79.7681 16.144C78.4081 20.704 77.4001 23.904 76.7441 25.744C76.6001 26.176 76.3761 26.392 76.0721 26.392C75.7681 26.392 75.5281 26.28 75.3521 26.056C75.1761 25.848 75.0881 25.536 75.0881 25.12C75.0881 24.704 75.3521 23.704 75.8801 22.12C76.4241 20.552 76.7521 19.552 76.8641 19.12C76.4641 18.448 75.1121 15.088 72.8081 9.04C72.7761 8.96 72.7601 8.856 72.7601 8.728C72.7601 8.6 72.8561 8.432 73.0481 8.224C73.2401 8.016 73.5041 7.912 73.8401 7.912C74.1761 7.912 74.4481 8.08 74.6561 8.416C74.8801 8.992 75.2481 10 75.7601 11.44C76.2721 12.864 76.6641 13.896 76.9361 14.536C77.2241 15.176 77.4961 15.84 77.7521 16.528C77.9761 15.776 78.3601 14.32 78.9041 12.16C79.4481 9.984 79.7601 8.744 79.8401 8.44C79.9041 8.088 80.2561 7.912 80.8961 7.912ZM90.6718 3.952C90.9598 3.952 91.2318 4.088 91.4878 4.36C91.7438 4.632 91.8718 4.92 91.8718 5.224C91.8718 5.512 91.7278 5.808 91.4398 6.112C91.1678 6.416 90.8798 6.568 90.5758 6.568C90.2718 6.568 89.9918 6.44 89.7358 6.184C89.4958 5.928 89.3758 5.6 89.3758 5.2C89.3758 4.432 89.7918 4.016 90.6238 3.952C90.6398 3.952 90.6558 3.952 90.6718 3.952ZM89.9038 8.656C89.8718 8.4 89.9598 8.192 90.1678 8.032C90.3758 7.856 90.6878 7.768 91.1038 7.768C91.5198 7.768 91.7518 7.968 91.7998 8.368C92.0238 10.336 92.1358 12.2 92.1358 13.96C92.1358 15.72 92.0798 17.48 91.9678 19.24C91.8558 21.016 91.5998 22.384 91.1998 23.344C90.6558 24.608 89.6718 25.24 88.2478 25.24C87.5278 25.24 86.9038 25.016 86.3758 24.568C85.8478 24.12 85.5838 23.584 85.5838 22.96C85.5838 22.624 85.7038 22.368 85.9438 22.192C86.1838 22.016 86.4478 21.928 86.7358 21.928C87.0238 21.928 87.2398 22 87.3838 22.144C87.5278 22.288 87.6238 22.448 87.6718 22.624C87.8318 23.088 88.1038 23.32 88.4878 23.32C88.8878 23.32 89.2238 23.008 89.4958 22.384C89.7838 21.76 89.9678 20.912 90.0478 19.84C90.1438 18.768 90.1918 17.632 90.1918 16.432C90.1918 12.672 90.0958 10.08 89.9038 8.656ZM98.8163 7.816C99.9683 7.816 100.912 8.368 101.648 9.472C102.4 10.576 102.776 11.904 102.776 13.456C102.776 14.992 102.392 16.304 101.624 17.392C100.872 18.48 99.8643 19.024 98.6003 19.024C97.3523 19.024 96.3443 18.472 95.5763 17.368C94.8083 16.248 94.4243 15.008 94.4243 13.648C94.4243 11.904 94.7763 10.512 95.4803 9.472C96.2323 8.368 97.3443 7.816 98.8163 7.816ZM98.5283 9.784C97.8563 9.784 97.3043 10.136 96.8723 10.84C96.4403 11.544 96.2243 12.288 96.2243 13.072C96.2243 14.288 96.4643 15.216 96.9443 15.856C97.4243 16.496 97.9683 16.816 98.5763 16.816C99.6643 16.816 100.36 16.344 100.664 15.4C100.792 14.952 100.856 14.392 100.856 13.72C100.856 11.096 100.08 9.784 98.5283 9.784ZM104.296 2.776C104.296 2.136 104.696 1.816 105.496 1.816C105.864 1.816 106.08 2.04 106.144 2.488V6.088C106.144 6.76 106.152 7.432 106.168 8.104C106.488 8.008 106.896 7.96 107.392 7.96C108.944 7.96 110.144 8.48 110.992 9.52C111.84 10.56 112.264 11.864 112.264 13.432C112.264 15 111.76 16.328 110.752 17.416C109.76 18.488 108.48 19.024 106.912 19.024C105.344 19.024 104.56 18.584 104.56 17.704C104.56 16.808 104.512 14.552 104.416 10.936C104.336 7.304 104.296 4.584 104.296 2.776ZM109.144 10.504C108.568 10.056 107.96 9.832 107.32 9.832C106.968 9.832 106.608 9.896 106.24 10.024C106.336 11.336 106.384 13.664 106.384 17.008C106.656 17.104 106.936 17.152 107.224 17.152C107.848 17.152 108.472 16.92 109.096 16.456C110.024 15.816 110.488 14.84 110.488 13.528C110.488 12.2 110.04 11.192 109.144 10.504ZM120.27 7.792L121.47 7.816C121.742 7.816 121.894 7.808 121.926 7.792V2.872C121.942 2.6 122.078 2.368 122.334 2.176C122.59 1.984 122.83 1.888 123.054 1.888C123.278 1.888 123.454 1.96 123.582 2.104C123.726 2.248 123.79 2.472 123.774 2.776C123.758 3.08 123.75 4.744 123.75 7.768L126.558 7.672C127.038 7.672 127.278 7.952 127.278 8.512C127.278 8.928 127.15 9.24 126.894 9.448C126.654 9.656 126.39 9.768 126.102 9.784C125.83 9.8 125.558 9.808 125.286 9.808L123.822 9.784C123.822 10.44 123.886 11.736 124.014 13.672C124.158 15.608 124.27 16.864 124.35 17.44C124.43 18 124.446 18.368 124.398 18.544C124.35 18.704 124.262 18.816 124.134 18.88C123.926 18.976 123.646 19.024 123.294 19.024C122.942 19.024 122.734 18.832 122.67 18.448C122.35 16.352 122.134 13.472 122.022 9.808C121.878 9.824 121.326 9.832 120.366 9.832C119.406 9.832 118.926 9.552 118.926 8.992C118.926 8.192 119.374 7.792 120.27 7.792ZM129.504 3.832C129.792 3.832 130.064 3.968 130.32 4.24C130.576 4.512 130.704 4.8 130.704 5.104C130.704 5.392 130.56 5.688 130.272 5.992C130 6.296 129.712 6.448 129.408 6.448C129.104 6.448 128.824 6.32 128.568 6.064C128.328 5.808 128.208 5.48 128.208 5.08C128.208 4.312 128.624 3.896 129.456 3.832C129.472 3.832 129.488 3.832 129.504 3.832ZM130.512 16.408L130.536 18.088C130.536 18.392 130.416 18.648 130.176 18.856C129.936 19.048 129.68 19.144 129.408 19.144C129.008 19.144 128.8 18.944 128.784 18.544C128.576 13.44 128.472 10.616 128.472 10.072C128.472 9.528 128.496 8.864 128.544 8.08C128.576 7.792 128.76 7.648 129.096 7.648C129.944 7.648 130.424 7.992 130.536 8.68C130.584 9.032 130.608 9.312 130.608 9.52L130.512 11.032V16.408ZM133.887 7.792L135.087 7.816C135.359 7.816 135.511 7.808 135.543 7.792V2.872C135.559 2.6 135.695 2.368 135.951 2.176C136.207 1.984 136.447 1.888 136.671 1.888C136.895 1.888 137.071 1.96 137.199 2.104C137.343 2.248 137.407 2.472 137.391 2.776C137.375 3.08 137.367 4.744 137.367 7.768L140.175 7.672C140.655 7.672 140.895 7.952 140.895 8.512C140.895 8.928 140.767 9.24 140.511 9.448C140.271 9.656 140.007 9.768 139.719 9.784C139.447 9.8 139.175 9.808 138.903 9.808L137.439 9.784C137.439 10.44 137.503 11.736 137.631 13.672C137.775 15.608 137.887 16.864 137.967 17.44C138.047 18 138.063 18.368 138.015 18.544C137.967 18.704 137.879 18.816 137.751 18.88C137.543 18.976 137.263 19.024 136.911 19.024C136.559 19.024 136.351 18.832 136.287 18.448C135.967 16.352 135.751 13.472 135.639 9.808C135.495 9.824 134.943 9.832 133.983 9.832C133.023 9.832 132.543 9.552 132.543 8.992C132.543 8.192 132.991 7.792 133.887 7.792ZM141.465 3.472C141.513 2.864 141.609 2.472 141.753 2.296C141.913 2.104 142.161 2.008 142.497 2.008C143.185 2.008 143.529 2.288 143.529 2.848C143.529 3.28 143.489 4.408 143.409 6.232C143.345 8.056 143.313 9.688 143.313 11.128C143.313 12.568 143.369 13.728 143.481 14.608C143.673 16.144 143.945 16.912 144.297 16.912C144.649 16.912 144.913 16.664 145.089 16.168C145.169 15.976 145.297 15.808 145.473 15.664C145.649 15.504 145.873 15.424 146.145 15.424C146.705 15.424 146.985 15.896 146.985 16.84C146.985 17.352 146.705 17.864 146.145 18.376C145.601 18.872 145.057 19.12 144.513 19.12C143.969 19.12 143.529 19.032 143.193 18.856C142.873 18.664 142.609 18.384 142.401 18.016C142.209 17.648 142.049 17.296 141.921 16.96C141.809 16.608 141.729 16.184 141.681 15.688C141.585 14.888 141.513 13.608 141.465 11.848C141.433 10.072 141.417 8.384 141.417 6.784C141.417 5.168 141.433 4.064 141.465 3.472ZM151.368 7.888C152.216 7.888 153.024 8.136 153.792 8.632C154.56 9.128 154.944 9.744 154.944 10.48C154.944 11.2 154.632 11.904 154.008 12.592C153.384 13.264 152.552 13.672 151.512 13.816C151.064 13.88 150.392 13.912 149.496 13.912C149.672 15.272 150.016 16.168 150.528 16.6C150.688 16.776 150.904 16.864 151.176 16.864C152.168 16.864 153 16.552 153.672 15.928C154.344 15.288 154.824 14.968 155.112 14.968C155.24 14.968 155.432 15.088 155.688 15.328C155.944 15.568 156.072 15.792 156.072 16C156.072 16.416 155.568 17.016 154.56 17.8C154.112 18.168 153.568 18.48 152.928 18.736C152.304 18.976 151.72 19.096 151.176 19.096C149.784 19.096 148.76 18.2 148.104 16.408C147.688 15.304 147.48 14.088 147.48 12.76C147.48 11.432 147.792 10.288 148.416 9.328C149.04 8.368 150.024 7.888 151.368 7.888ZM151.488 9.544C150.88 9.544 150.36 9.888 149.928 10.576C149.768 10.816 149.616 11.36 149.472 12.208C151.712 12.208 152.832 11.656 152.832 10.552C152.832 9.88 152.384 9.544 151.488 9.544ZM160.499 2.488L160.283 10.672C160.283 11.552 160.291 12.128 160.307 12.4C160.243 12.608 160.115 12.792 159.923 12.952C159.747 13.112 159.547 13.192 159.323 13.192C159.099 13.192 158.915 13.016 158.771 12.664C158.531 8.632 158.411 5.24 158.411 2.488C158.555 2.088 158.923 1.888 159.515 1.888C160.107 1.888 160.435 2.088 160.499 2.488ZM158.843 17.848C158.603 17.56 158.483 17.272 158.483 16.984C158.483 16.696 158.595 16.432 158.819 16.192C159.043 15.952 159.339 15.832 159.707 15.832C160.091 15.832 160.363 15.904 160.523 16.048C160.699 16.192 160.787 16.504 160.787 16.984C160.787 17.832 160.435 18.256 159.73 18.256C159.379 18.256 159.083 18.12 158.843 17.848Z" fill="#326BFF"/>
</svg>
