<svg width="481" height="26" viewBox="0 0 481 26" fill="none" xmlns="http://www.w3.org/2000/svg">
<path d="M3.008 14.496L3.032 16.968C3.032 17.256 2.896 17.52 2.624 17.76C2.368 18 2.112 18.12 1.856 18.12C1.488 18.12 1.256 17.832 1.16 17.256C1.144 17.128 1.08 15.96 0.968 13.752C0.856 11.528 0.64 9.784 0.32 8.52C0.176 7.912 0.104 7.552 0.104 7.44C0.104 6.912 0.424 6.648 1.064 6.648C1.336 6.648 1.552 6.752 1.712 6.96C1.872 7.168 1.968 7.384 2 7.608C2.048 7.816 2.088 8.104 2.12 8.472C2.152 8.84 2.176 9.072 2.192 9.168C2.528 8.368 3.032 7.768 3.704 7.368C4.376 6.968 5.112 6.768 5.912 6.768C7.224 6.768 7.88 7.104 7.88 7.776C7.88 8.112 7.76 8.384 7.52 8.592C7.296 8.784 7.032 8.88 6.728 8.88C5.368 8.88 4.408 9.312 3.848 10.176C3.288 11.04 3.008 12.48 3.008 14.496ZM12.6024 6.888C13.4504 6.888 14.2584 7.136 15.0264 7.632C15.7944 8.128 16.1784 8.744 16.1784 9.48C16.1784 10.2 15.8664 10.904 15.2424 11.592C14.6184 12.264 13.7864 12.672 12.7464 12.816C12.2984 12.88 11.6264 12.912 10.7304 12.912C10.9064 14.272 11.2504 15.168 11.7624 15.6C11.9224 15.776 12.1384 15.864 12.4104 15.864C13.4024 15.864 14.2344 15.552 14.9064 14.928C15.5784 14.288 16.0584 13.968 16.3464 13.968C16.4744 13.968 16.6664 14.088 16.9224 14.328C17.1784 14.568 17.3064 14.792 17.3064 15C17.3064 15.416 16.8024 16.016 15.7944 16.8C15.3464 17.168 14.8024 17.48 14.1624 17.736C13.5384 17.976 12.9544 18.096 12.4104 18.096C11.0184 18.096 9.99438 17.2 9.33838 15.408C8.92238 14.304 8.71438 13.088 8.71438 11.76C8.71438 10.432 9.02638 9.288 9.65038 8.328C10.2744 7.368 11.2584 6.888 12.6024 6.888ZM12.7224 8.544C12.1144 8.544 11.5944 8.888 11.1624 9.576C11.0024 9.816 10.8504 10.36 10.7064 11.208C12.9464 11.208 14.0664 10.656 14.0664 9.552C14.0664 8.88 13.6184 8.544 12.7224 8.544ZM26.4609 6.672C26.6849 6.672 26.8529 6.752 26.9649 6.912C27.0769 7.056 27.1329 7.216 27.1329 7.392L27.1089 7.632C26.4369 9.344 25.9409 10.736 25.6209 11.808C25.4129 12.56 25.2529 13.12 25.1409 13.488C25.0449 13.856 24.8769 14.504 24.6369 15.432C24.3969 16.36 24.2369 16.96 24.1569 17.232C23.9329 17.776 23.5409 18.048 22.9809 18.048C22.7089 18.048 22.5169 17.872 22.4049 17.52C21.8929 15.92 21.1409 14.112 20.1489 12.096C19.1569 10.08 18.5889 8.928 18.4449 8.64C18.3169 8.336 18.2529 8.064 18.2529 7.824C18.2529 7.584 18.3569 7.352 18.5649 7.128C18.7889 6.904 19.0369 6.792 19.3089 6.792C19.5809 6.792 19.8129 6.936 20.0049 7.224C20.1809 7.576 20.6769 8.56 21.4929 10.176C22.3249 11.792 22.9089 13.064 23.2449 13.992C23.2609 13.896 23.3169 13.696 23.4129 13.392C24.2289 10.56 24.8929 8.536 25.4049 7.32C25.6769 6.888 26.0289 6.672 26.4609 6.672ZM32.5663 6.816C33.7183 6.816 34.6623 7.368 35.3983 8.472C36.1503 9.576 36.5263 10.904 36.5263 12.456C36.5263 13.992 36.1423 15.304 35.3743 16.392C34.6223 17.48 33.6143 18.024 32.3503 18.024C31.1023 18.024 30.0943 17.472 29.3263 16.368C28.5583 15.248 28.1743 14.008 28.1743 12.648C28.1743 10.904 28.5263 9.512 29.2303 8.472C29.9823 7.368 31.0943 6.816 32.5663 6.816ZM32.2783 8.784C31.6063 8.784 31.0543 9.136 30.6223 9.84C30.1903 10.544 29.9743 11.288 29.9743 12.072C29.9743 13.288 30.2143 14.216 30.6943 14.856C31.1743 15.496 31.7183 15.816 32.3263 15.816C33.4143 15.816 34.1103 15.344 34.4143 14.4C34.5423 13.952 34.6063 13.392 34.6063 12.72C34.6063 10.096 33.8303 8.784 32.2783 8.784ZM37.9259 2.472C37.9739 1.864 38.0699 1.472 38.2139 1.296C38.3739 1.104 38.6219 1.008 38.9579 1.008C39.6459 1.008 39.9899 1.288 39.9899 1.848C39.9899 2.28 39.9499 3.408 39.8699 5.232C39.8059 7.056 39.7739 8.688 39.7739 10.128C39.7739 11.568 39.8299 12.728 39.9419 13.608C40.1339 15.144 40.4059 15.912 40.7579 15.912C41.1099 15.912 41.3739 15.664 41.5499 15.168C41.6299 14.976 41.7579 14.808 41.9339 14.664C42.1099 14.504 42.3339 14.424 42.6059 14.424C43.1659 14.424 43.4459 14.896 43.4459 15.84C43.4459 16.352 43.1659 16.864 42.6059 17.376C42.0619 17.872 41.5179 18.12 40.9739 18.12C40.4299 18.12 39.9899 18.032 39.6539 17.856C39.3339 17.664 39.0699 17.384 38.8619 17.016C38.6699 16.648 38.5099 16.296 38.3819 15.96C38.2699 15.608 38.1899 15.184 38.1419 14.688C38.0459 13.888 37.9739 12.608 37.9259 10.848C37.8939 9.072 37.8779 7.384 37.8779 5.784C37.8779 4.168 37.8939 3.064 37.9259 2.472ZM44.3249 7.728C44.3889 7.456 44.5249 7.232 44.7329 7.056C44.9409 6.864 45.1489 6.768 45.3569 6.768C45.5809 6.768 45.7489 6.808 45.8609 6.888C45.9889 6.968 46.0609 7.04 46.0769 7.104C46.1089 7.168 46.1409 7.28 46.1729 7.44C46.0769 8.688 46.0289 9.816 46.0289 10.824C46.0289 11.816 46.1489 12.96 46.3889 14.256C46.6289 15.536 46.8929 16.176 47.1809 16.176C47.6129 16.176 48.1569 15.936 48.8129 15.456C49.4849 14.976 49.9649 14.472 50.2529 13.944C50.0609 11.64 49.9649 9.664 49.9649 8.016C49.9649 7.68 50.0689 7.392 50.2769 7.152C50.5009 6.912 50.7649 6.792 51.0689 6.792C51.5649 6.792 51.8129 7.128 51.8129 7.8C51.8129 8.936 51.8929 10.624 52.0529 12.864C52.2289 15.104 52.4049 16.528 52.5809 17.136C52.6129 17.264 52.6289 17.416 52.6289 17.592C52.6289 17.752 52.5169 17.904 52.2929 18.048C52.0849 18.208 51.8049 18.288 51.4529 18.288C51.1169 18.288 50.8929 18.096 50.7809 17.712C50.7489 17.392 50.6689 16.912 50.5409 16.272C49.4209 17.44 48.2929 18.024 47.1569 18.024C46.6289 18.024 46.1569 17.824 45.7409 17.424C45.3249 17.024 44.9969 16.48 44.7569 15.792C44.3409 14.464 44.1329 13.216 44.1329 12.048C44.1329 10.88 44.1969 9.44 44.3249 7.728ZM54.5823 6.792L55.7823 6.816C56.0543 6.816 56.2063 6.808 56.2383 6.792V1.872C56.2543 1.6 56.3903 1.368 56.6463 1.176C56.9023 0.983999 57.1423 0.887999 57.3663 0.887999C57.5903 0.887999 57.7663 0.959999 57.8943 1.104C58.0383 1.248 58.1023 1.472 58.0863 1.776C58.0703 2.08 58.0623 3.744 58.0623 6.768L60.8703 6.672C61.3503 6.672 61.5903 6.952 61.5903 7.512C61.5903 7.928 61.4623 8.24 61.2063 8.448C60.9663 8.656 60.7023 8.768 60.4143 8.784C60.1423 8.8 59.8703 8.808 59.5983 8.808L58.1343 8.784C58.1343 9.44 58.1983 10.736 58.3263 12.672C58.4703 14.608 58.5823 15.864 58.6623 16.44C58.7423 17 58.7583 17.368 58.7103 17.544C58.6623 17.704 58.5743 17.816 58.4463 17.88C58.2383 17.976 57.9583 18.024 57.6063 18.024C57.2543 18.024 57.0463 17.832 56.9823 17.448C56.6623 15.352 56.4463 12.472 56.3343 8.808C56.1903 8.824 55.6383 8.832 54.6783 8.832C53.7183 8.832 53.2383 8.552 53.2383 7.992C53.2383 7.192 53.6863 6.792 54.5823 6.792ZM63.8163 2.832C64.1043 2.832 64.3763 2.968 64.6323 3.24C64.8883 3.512 65.0163 3.8 65.0163 4.104C65.0163 4.392 64.8723 4.688 64.5843 4.992C64.3123 5.296 64.0243 5.448 63.7203 5.448C63.4163 5.448 63.1363 5.32 62.8803 5.064C62.6403 4.808 62.5203 4.48 62.5203 4.08C62.5203 3.312 62.9363 2.896 63.7683 2.832C63.7843 2.832 63.8003 2.832 63.8163 2.832ZM64.8243 15.408L64.8483 17.088C64.8483 17.392 64.7283 17.648 64.4883 17.856C64.2483 18.048 63.9923 18.144 63.7203 18.144C63.3203 18.144 63.1123 17.944 63.0963 17.544C62.8883 12.44 62.7843 9.616 62.7843 9.072C62.7843 8.528 62.8083 7.864 62.8563 7.08C62.8883 6.792 63.0723 6.648 63.4083 6.648C64.2563 6.648 64.7363 6.992 64.8483 7.68C64.8963 8.032 64.9203 8.312 64.9203 8.52L64.8243 10.032V15.408ZM71.8475 6.816C72.9995 6.816 73.9435 7.368 74.6795 8.472C75.4315 9.576 75.8075 10.904 75.8075 12.456C75.8075 13.992 75.4235 15.304 74.6555 16.392C73.9035 17.48 72.8955 18.024 71.6315 18.024C70.3835 18.024 69.3755 17.472 68.6075 16.368C67.8395 15.248 67.4555 14.008 67.4555 12.648C67.4555 10.904 67.8075 9.512 68.5115 8.472C69.2635 7.368 70.3755 6.816 71.8475 6.816ZM71.5595 8.784C70.8875 8.784 70.3355 9.136 69.9035 9.84C69.4715 10.544 69.2555 11.288 69.2555 12.072C69.2555 13.288 69.4955 14.216 69.9755 14.856C70.4555 15.496 70.9995 15.816 71.6075 15.816C72.6955 15.816 73.3915 15.344 73.6955 14.4C73.8235 13.952 73.8875 13.392 73.8875 12.72C73.8875 10.096 73.1115 8.784 71.5595 8.784ZM78.1912 17.256L77.9272 7.512C77.9272 7.208 78.0312 6.96 78.2392 6.768C78.4472 6.576 78.6552 6.48 78.8632 6.48C79.3752 6.48 79.6712 6.696 79.7512 7.128C79.8152 7.56 79.8472 8.008 79.8472 8.472C80.7112 7.336 81.7912 6.768 83.0872 6.768C85.0712 6.768 86.0632 9.032 86.0632 13.56C86.0632 13.976 86.0632 14.608 86.0632 15.456C86.0632 16.288 86.0152 16.896 85.9192 17.28C85.8072 17.76 85.4632 18 84.8872 18C84.5032 18 84.3112 17.744 84.3112 17.232L84.3352 15.888C84.3352 14.032 84.2712 12.768 84.1432 12.096C84.0312 11.408 83.9192 10.864 83.8072 10.464C83.5352 9.6 83.0952 9.168 82.4872 9.168C81.6872 9.168 81.1272 9.456 80.8072 10.032C80.4552 10.656 80.2472 11.392 80.1832 12.24C80.0712 13.728 80.0152 15.304 80.0152 16.968C80.0152 17.288 79.8952 17.544 79.6552 17.736C79.4152 17.928 79.1272 18.024 78.7912 18.024C78.3912 18.024 78.1912 17.768 78.1912 17.256ZM89.7148 2.832C90.0028 2.832 90.2748 2.968 90.5308 3.24C90.7868 3.512 90.9148 3.8 90.9148 4.104C90.9148 4.392 90.7708 4.688 90.4828 4.992C90.2108 5.296 89.9228 5.448 89.6188 5.448C89.3148 5.448 89.0348 5.32 88.7788 5.064C88.5388 4.808 88.4188 4.48 88.4188 4.08C88.4188 3.312 88.8348 2.896 89.6668 2.832C89.6828 2.832 89.6988 2.832 89.7148 2.832ZM90.7228 15.408L90.7467 17.088C90.7467 17.392 90.6267 17.648 90.3867 17.856C90.1468 18.048 89.8908 18.144 89.6188 18.144C89.2188 18.144 89.0108 17.944 88.9948 17.544C88.7868 12.44 88.6828 9.616 88.6828 9.072C88.6828 8.528 88.7068 7.864 88.7548 7.08C88.7868 6.792 88.9708 6.648 89.3068 6.648C90.1548 6.648 90.6348 6.992 90.7467 7.68C90.7948 8.032 90.8188 8.312 90.8188 8.52L90.7228 10.032V15.408ZM97.8899 8.76L94.4579 9.072C93.7059 9.072 93.3299 8.744 93.3299 8.088C93.3299 7.4 93.7219 7.032 94.5059 6.984C94.7459 6.968 96.2899 6.96 99.1379 6.96C99.7299 6.96 100.322 7.12 100.914 7.44C101.602 7.824 101.946 8.432 101.946 9.264C101.946 10.096 101.37 11.008 100.218 12C99.7379 12.416 99.2259 12.832 98.6819 13.248C96.9059 14.592 96.0179 15.44 96.0179 15.792C96.0179 16.032 96.3139 16.152 96.9059 16.152C97.5139 16.152 98.0659 16.12 98.5619 16.056C99.0739 15.976 99.6179 15.896 100.194 15.816C100.77 15.72 101.13 15.672 101.274 15.672C101.946 15.672 102.282 15.912 102.282 16.392C102.282 17.48 100.65 18.024 97.3859 18.024C96.2019 18.024 95.3539 17.896 94.8419 17.64C94.3459 17.384 94.0179 16.928 93.8579 16.272C93.8419 16.176 93.8339 16.08 93.8339 15.984C93.8339 15.536 94.0899 14.992 94.6019 14.352C95.3059 13.488 96.2259 12.664 97.3619 11.88C98.6579 10.984 99.4099 10.352 99.6179 9.984C99.7299 9.776 99.7699 9.592 99.7379 9.432C99.6419 8.984 99.0259 8.76 97.8899 8.76ZM105.348 2.832C105.636 2.832 105.908 2.968 106.164 3.24C106.42 3.512 106.548 3.8 106.548 4.104C106.548 4.392 106.404 4.688 106.116 4.992C105.844 5.296 105.556 5.448 105.252 5.448C104.948 5.448 104.668 5.32 104.412 5.064C104.172 4.808 104.052 4.48 104.052 4.08C104.052 3.312 104.468 2.896 105.3 2.832C105.316 2.832 105.332 2.832 105.348 2.832ZM106.356 15.408L106.38 17.088C106.38 17.392 106.26 17.648 106.02 17.856C105.78 18.048 105.524 18.144 105.252 18.144C104.852 18.144 104.644 17.944 104.628 17.544C104.42 12.44 104.316 9.616 104.316 9.072C104.316 8.528 104.34 7.864 104.388 7.08C104.42 6.792 104.604 6.648 104.94 6.648C105.788 6.648 106.268 6.992 106.38 7.68C106.428 8.032 106.452 8.312 106.452 8.52L106.356 10.032V15.408ZM110.043 17.256L109.779 7.512C109.779 7.208 109.883 6.96 110.091 6.768C110.299 6.576 110.507 6.48 110.715 6.48C111.227 6.48 111.523 6.696 111.603 7.128C111.667 7.56 111.699 8.008 111.699 8.472C112.563 7.336 113.643 6.768 114.939 6.768C116.923 6.768 117.915 9.032 117.915 13.56C117.915 13.976 117.915 14.608 117.915 15.456C117.915 16.288 117.867 16.896 117.771 17.28C117.659 17.76 117.315 18 116.739 18C116.355 18 116.163 17.744 116.163 17.232L116.187 15.888C116.187 14.032 116.123 12.768 115.995 12.096C115.883 11.408 115.771 10.864 115.659 10.464C115.387 9.6 114.947 9.168 114.339 9.168C113.539 9.168 112.979 9.456 112.659 10.032C112.307 10.656 112.099 11.392 112.035 12.24C111.923 13.728 111.867 15.304 111.867 16.968C111.867 17.288 111.747 17.544 111.507 17.736C111.267 17.928 110.979 18.024 110.643 18.024C110.243 18.024 110.043 17.768 110.043 17.256ZM126.87 17.016C126.294 17.688 125.566 18.024 124.686 18.024C123.806 18.024 123.046 17.752 122.406 17.208C121.062 16.168 120.39 14.576 120.39 12.432C120.39 10.752 120.854 9.408 121.782 8.4C122.71 7.376 123.854 6.864 125.214 6.864C126.574 6.864 127.502 7.328 127.998 8.256C128.43 9.072 128.646 10.304 128.646 11.952L128.598 13.92C128.598 14.848 128.638 16.136 128.718 17.784C128.814 19.416 128.862 20.648 128.862 21.48C128.862 22.856 128.518 23.864 127.83 24.504C127.158 25.16 126.126 25.488 124.734 25.488C123.902 25.488 123.054 25.312 122.19 24.96C121.326 24.608 120.894 24.2 120.894 23.736C120.894 23.4 120.982 23.144 121.158 22.968C121.35 22.792 121.566 22.704 121.806 22.704C122.046 22.704 122.582 22.88 123.414 23.232C124.262 23.584 124.87 23.76 125.238 23.76C126.39 23.76 126.966 22.816 126.966 20.928C126.966 19.04 126.934 17.736 126.87 17.016ZM126.846 11.952C126.846 10.784 126.67 9.968 126.318 9.504C125.982 9.024 125.446 8.784 124.71 8.784C123.974 8.784 123.382 9.12 122.934 9.792C122.486 10.464 122.262 11.32 122.262 12.36C122.262 13.384 122.47 14.2 122.886 14.808C123.318 15.416 123.974 15.72 124.854 15.72C125.734 15.72 126.302 15.344 126.558 14.592C126.75 13.984 126.846 13.104 126.846 11.952ZM143.425 5.496L143.401 7.896C143.401 8.44 143.401 9.952 143.401 12.432L143.449 16.992C143.449 17.28 143.321 17.52 143.065 17.712C142.825 17.888 142.593 17.976 142.369 17.976C142.161 17.976 141.993 17.88 141.865 17.688C141.737 17.48 141.665 17.248 141.649 16.992C141.537 14.64 141.481 12.208 141.481 9.696C141.065 10.24 140.225 10.512 138.961 10.512C138.097 10.512 137.385 10.064 136.825 9.168C136.265 8.272 135.985 7.304 135.985 6.264C135.985 4.888 136.409 3.84 137.257 3.12C138.121 2.384 139.209 2.016 140.521 2.016C141.833 2.016 142.737 2.52 143.233 3.528C143.361 3.8 143.425 4.456 143.425 5.496ZM141.529 6.072L141.553 4.896C141.553 4.512 141.521 4.264 141.457 4.152C141.393 4.024 141.313 3.928 141.217 3.864C141.105 3.752 140.969 3.696 140.809 3.696C140.665 3.696 140.465 3.728 140.209 3.792C139.969 3.84 139.649 3.952 139.249 4.128C138.865 4.288 138.521 4.568 138.217 4.968C137.929 5.352 137.785 5.856 137.785 6.48C137.785 7.104 137.945 7.616 138.265 8.016C138.585 8.416 138.921 8.616 139.273 8.616C139.369 8.616 139.473 8.6 139.585 8.568C140.545 8.312 141.193 8.056 141.529 7.8V6.072ZM151.686 16.872C151.686 17.656 151.262 18.048 150.414 18.048C150.238 18.048 150.078 17.976 149.934 17.832C149.806 17.672 149.742 17.432 149.742 17.112L149.67 11.016C149.67 9 149.694 7.104 149.742 5.328C149.198 5.808 148.67 6.36 148.158 6.984C147.646 7.608 147.294 8.024 147.102 8.232C146.926 8.44 146.686 8.648 146.382 8.856C146.094 9.048 145.822 9.144 145.566 9.144C145.31 9.144 145.102 9.056 144.942 8.88C144.798 8.704 144.726 8.488 144.726 8.232C144.726 7.976 144.91 7.632 145.278 7.2C145.662 6.752 147.054 5.256 149.454 2.712C149.822 2.376 150.286 2.208 150.846 2.208C151.118 2.208 151.342 2.288 151.518 2.448C151.694 2.608 151.782 2.792 151.782 3L151.614 9.456L151.686 16.872ZM160.404 16.872C160.404 17.656 159.98 18.048 159.132 18.048C158.956 18.048 158.796 17.976 158.652 17.832C158.524 17.672 158.46 17.432 158.46 17.112L158.388 11.016C158.388 9 158.412 7.104 158.46 5.328C157.916 5.808 157.388 6.36 156.876 6.984C156.364 7.608 156.012 8.024 155.82 8.232C155.644 8.44 155.404 8.648 155.1 8.856C154.812 9.048 154.54 9.144 154.284 9.144C154.028 9.144 153.82 9.056 153.66 8.88C153.516 8.704 153.444 8.488 153.444 8.232C153.444 7.976 153.628 7.632 153.996 7.2C154.38 6.752 155.772 5.256 158.172 2.712C158.54 2.376 159.004 2.208 159.564 2.208C159.836 2.208 160.06 2.288 160.236 2.448C160.412 2.608 160.5 2.792 160.5 3L160.332 9.456L160.404 16.872ZM174.678 6.792C175.382 6.792 175.734 7.392 175.734 8.592C175.734 8.72 175.734 8.856 175.734 9L175.686 10.68C175.67 11.208 175.662 11.728 175.662 12.24L176.022 17.664C176.022 18.064 175.614 18.264 174.798 18.264C174.75 18.264 174.63 18.264 174.438 18.264C174.262 18.264 174.134 18.192 174.054 18.048C173.99 17.904 173.982 17.728 174.03 17.52C174.094 17.312 174.078 17.08 173.982 16.824C173.246 17.608 172.27 18 171.054 18C168.798 18 167.67 16.256 167.67 12.768C167.67 10.832 168.03 9.368 168.75 8.376C169.486 7.384 170.534 6.888 171.894 6.888C172.534 6.888 173.174 7 173.814 7.224C174.022 6.936 174.31 6.792 174.678 6.792ZM172.182 8.976C171.27 8.976 170.59 9.24 170.142 9.768C169.694 10.296 169.47 11.264 169.47 12.672C169.47 15.04 170.11 16.224 171.39 16.224C171.726 16.224 172.094 16.072 172.494 15.768C172.91 15.464 173.198 15.12 173.358 14.736C173.662 13.872 173.814 12.928 173.814 11.904C173.814 10.88 173.686 10.136 173.43 9.672C173.19 9.208 172.774 8.976 172.182 8.976ZM178.293 17.256L178.029 7.512C178.029 7.208 178.133 6.96 178.341 6.768C178.549 6.576 178.757 6.48 178.965 6.48C179.477 6.48 179.773 6.696 179.853 7.128C179.917 7.56 179.949 8.008 179.949 8.472C180.813 7.336 181.893 6.768 183.189 6.768C185.173 6.768 186.165 9.032 186.165 13.56C186.165 13.976 186.165 14.608 186.165 15.456C186.165 16.288 186.117 16.896 186.021 17.28C185.909 17.76 185.565 18 184.989 18C184.605 18 184.413 17.744 184.413 17.232L184.437 15.888C184.437 14.032 184.373 12.768 184.245 12.096C184.133 11.408 184.021 10.864 183.909 10.464C183.637 9.6 183.197 9.168 182.589 9.168C181.789 9.168 181.229 9.456 180.909 10.032C180.557 10.656 180.349 11.392 180.285 12.24C180.173 13.728 180.117 15.304 180.117 16.968C180.117 17.288 179.997 17.544 179.757 17.736C179.517 17.928 179.229 18.024 178.893 18.024C178.493 18.024 178.293 17.768 178.293 17.256ZM193.968 6.768L193.944 2.136C193.944 1.272 194.216 0.839999 194.76 0.839999C195.32 0.839999 195.632 1.08 195.696 1.56C195.728 1.768 195.768 3.024 195.816 5.328C195.864 7.632 195.936 9.792 196.032 11.808C196.144 13.824 196.2 15.704 196.2 17.448C196.2 17.928 195.84 18.168 195.12 18.168C194.64 18.168 194.4 17.832 194.4 17.16C193.712 17.704 192.896 17.976 191.952 17.976C190.752 17.976 189.776 17.528 189.024 16.632C188.288 15.736 187.92 14.632 187.92 13.32C187.92 12.008 188.184 10.784 188.712 9.648C189.256 8.496 190.096 7.672 191.232 7.176C191.936 6.872 192.616 6.72 193.272 6.72C193.512 6.72 193.744 6.736 193.968 6.768ZM194.088 10.056C193.976 9.704 193.84 9.44 193.68 9.264C193.52 9.072 193.344 8.96 193.152 8.928C192.976 8.88 192.76 8.856 192.504 8.856C192.248 8.856 191.936 8.952 191.568 9.144C191.2 9.336 190.888 9.648 190.632 10.08C190.12 10.944 189.864 11.856 189.864 12.816C189.864 13.76 190.048 14.536 190.416 15.144C190.8 15.736 191.336 16.032 192.024 16.032C192.728 16.032 193.28 15.688 193.68 15C194.08 14.312 194.28 13.432 194.28 12.36C194.28 11.16 194.216 10.392 194.088 10.056ZM206.571 6.888C207.419 6.888 208.227 7.136 208.995 7.632C209.763 8.128 210.147 8.744 210.147 9.48C210.147 10.2 209.835 10.904 209.211 11.592C208.587 12.264 207.755 12.672 206.715 12.816C206.267 12.88 205.595 12.912 204.699 12.912C204.875 14.272 205.219 15.168 205.731 15.6C205.891 15.776 206.107 15.864 206.379 15.864C207.371 15.864 208.203 15.552 208.875 14.928C209.547 14.288 210.027 13.968 210.315 13.968C210.443 13.968 210.635 14.088 210.891 14.328C211.147 14.568 211.275 14.792 211.275 15C211.275 15.416 210.771 16.016 209.763 16.8C209.315 17.168 208.771 17.48 208.131 17.736C207.507 17.976 206.923 18.096 206.379 18.096C204.987 18.096 203.963 17.2 203.307 15.408C202.891 14.304 202.683 13.088 202.683 11.76C202.683 10.432 202.995 9.288 203.619 8.328C204.243 7.368 205.227 6.888 206.571 6.888ZM206.691 8.544C206.083 8.544 205.563 8.888 205.131 9.576C204.971 9.816 204.819 10.36 204.675 11.208C206.915 11.208 208.035 10.656 208.035 9.552C208.035 8.88 207.587 8.544 206.691 8.544ZM214.046 18.024C213.63 18.024 213.382 17.792 213.302 17.328C213.302 14.096 213.11 11.216 212.726 8.688C212.726 8.368 212.838 8.08 213.062 7.824C213.302 7.568 213.566 7.44 213.854 7.44C214.158 7.44 214.382 7.608 214.526 7.944C215.118 7.16 215.91 6.768 216.902 6.768C218.166 6.768 219.142 7.376 219.83 8.592C220.63 7.44 221.686 6.864 222.998 6.864C224.326 6.864 225.318 7.392 225.974 8.448C226.406 9.104 226.71 9.968 226.886 11.04C227.062 12.112 227.15 13.632 227.15 15.6C227.15 16.368 227.07 16.968 226.91 17.4C226.75 17.816 226.414 18.024 225.902 18.024C225.486 18.024 225.278 17.76 225.278 17.232L225.35 14.232C225.35 10.632 224.414 8.832 222.542 8.832C221.95 8.832 221.534 9.04 221.294 9.456C221.022 9.952 220.862 10.472 220.814 11.016C220.75 11.976 220.718 12.848 220.718 13.632V17.112C220.718 17.368 220.59 17.584 220.334 17.76C220.078 17.936 219.814 18.024 219.542 18.024C219.19 18.024 218.966 17.792 218.87 17.328L218.942 12.36C218.942 10.6 218.646 9.504 218.054 9.072C217.766 8.864 217.326 8.76 216.734 8.76C216.158 8.76 215.726 8.976 215.438 9.408C215.166 9.84 215.03 10.536 215.03 11.496L215.174 15.96C215.174 17.336 214.798 18.024 214.046 18.024ZM232.446 6.888C233.294 6.888 234.102 7.136 234.87 7.632C235.638 8.128 236.022 8.744 236.022 9.48C236.022 10.2 235.71 10.904 235.086 11.592C234.462 12.264 233.63 12.672 232.59 12.816C232.142 12.88 231.47 12.912 230.574 12.912C230.75 14.272 231.094 15.168 231.606 15.6C231.766 15.776 231.982 15.864 232.254 15.864C233.246 15.864 234.078 15.552 234.75 14.928C235.422 14.288 235.902 13.968 236.19 13.968C236.318 13.968 236.51 14.088 236.766 14.328C237.022 14.568 237.15 14.792 237.15 15C237.15 15.416 236.646 16.016 235.638 16.8C235.19 17.168 234.646 17.48 234.006 17.736C233.382 17.976 232.798 18.096 232.254 18.096C230.862 18.096 229.838 17.2 229.182 15.408C228.766 14.304 228.558 13.088 228.558 11.76C228.558 10.432 228.87 9.288 229.494 8.328C230.118 7.368 231.102 6.888 232.446 6.888ZM232.566 8.544C231.958 8.544 231.438 8.888 231.006 9.576C230.846 9.816 230.694 10.36 230.55 11.208C232.79 11.208 233.91 10.656 233.91 9.552C233.91 8.88 233.462 8.544 232.566 8.544ZM241.649 14.496L241.673 16.968C241.673 17.256 241.537 17.52 241.265 17.76C241.009 18 240.753 18.12 240.497 18.12C240.129 18.12 239.897 17.832 239.801 17.256C239.785 17.128 239.721 15.96 239.609 13.752C239.497 11.528 239.281 9.784 238.961 8.52C238.817 7.912 238.745 7.552 238.745 7.44C238.745 6.912 239.065 6.648 239.705 6.648C239.977 6.648 240.193 6.752 240.353 6.96C240.513 7.168 240.609 7.384 240.641 7.608C240.689 7.816 240.729 8.104 240.761 8.472C240.793 8.84 240.817 9.072 240.833 9.168C241.169 8.368 241.673 7.768 242.345 7.368C243.017 6.968 243.753 6.768 244.553 6.768C245.865 6.768 246.521 7.104 246.521 7.776C246.521 8.112 246.401 8.384 246.161 8.592C245.937 8.784 245.673 8.88 245.369 8.88C244.009 8.88 243.049 9.312 242.489 10.176C241.929 11.04 241.649 12.48 241.649 14.496ZM254.675 17.016C254.099 17.688 253.371 18.024 252.491 18.024C251.611 18.024 250.851 17.752 250.211 17.208C248.867 16.168 248.195 14.576 248.195 12.432C248.195 10.752 248.659 9.408 249.587 8.4C250.515 7.376 251.659 6.864 253.019 6.864C254.379 6.864 255.307 7.328 255.803 8.256C256.235 9.072 256.451 10.304 256.451 11.952L256.403 13.92C256.403 14.848 256.443 16.136 256.523 17.784C256.619 19.416 256.667 20.648 256.667 21.48C256.667 22.856 256.323 23.864 255.635 24.504C254.963 25.16 253.931 25.488 252.539 25.488C251.707 25.488 250.859 25.312 249.995 24.96C249.131 24.608 248.699 24.2 248.699 23.736C248.699 23.4 248.787 23.144 248.963 22.968C249.155 22.792 249.371 22.704 249.611 22.704C249.851 22.704 250.387 22.88 251.219 23.232C252.067 23.584 252.675 23.76 253.043 23.76C254.195 23.76 254.771 22.816 254.771 20.928C254.771 19.04 254.739 17.736 254.675 17.016ZM254.651 11.952C254.651 10.784 254.475 9.968 254.123 9.504C253.787 9.024 253.251 8.784 252.515 8.784C251.779 8.784 251.187 9.12 250.739 9.792C250.291 10.464 250.067 11.32 250.067 12.36C250.067 13.384 250.275 14.2 250.691 14.808C251.123 15.416 251.779 15.72 252.659 15.72C253.539 15.72 254.107 15.344 254.363 14.592C254.555 13.984 254.651 13.104 254.651 11.952ZM261.931 6.888C262.779 6.888 263.587 7.136 264.355 7.632C265.123 8.128 265.507 8.744 265.507 9.48C265.507 10.2 265.195 10.904 264.571 11.592C263.947 12.264 263.115 12.672 262.075 12.816C261.627 12.88 260.955 12.912 260.059 12.912C260.235 14.272 260.579 15.168 261.09 15.6C261.251 15.776 261.467 15.864 261.739 15.864C262.731 15.864 263.563 15.552 264.235 14.928C264.907 14.288 265.387 13.968 265.675 13.968C265.803 13.968 265.995 14.088 266.251 14.328C266.507 14.568 266.635 14.792 266.635 15C266.635 15.416 266.131 16.016 265.123 16.8C264.675 17.168 264.131 17.48 263.491 17.736C262.867 17.976 262.283 18.096 261.739 18.096C260.347 18.096 259.323 17.2 258.667 15.408C258.251 14.304 258.043 13.088 258.043 11.76C258.043 10.432 258.355 9.288 258.979 8.328C259.603 7.368 260.587 6.888 261.931 6.888ZM262.051 8.544C261.443 8.544 260.923 8.888 260.491 9.576C260.331 9.816 260.179 10.36 260.035 11.208C262.275 11.208 263.395 10.656 263.395 9.552C263.395 8.88 262.947 8.544 262.051 8.544ZM268.949 17.256L268.685 7.512C268.685 7.208 268.789 6.96 268.997 6.768C269.205 6.576 269.413 6.48 269.621 6.48C270.133 6.48 270.429 6.696 270.509 7.128C270.573 7.56 270.605 8.008 270.605 8.472C271.469 7.336 272.549 6.768 273.845 6.768C275.829 6.768 276.821 9.032 276.821 13.56C276.821 13.976 276.821 14.608 276.821 15.456C276.821 16.288 276.773 16.896 276.677 17.28C276.565 17.76 276.221 18 275.645 18C275.261 18 275.069 17.744 275.069 17.232L275.093 15.888C275.093 14.032 275.029 12.768 274.901 12.096C274.789 11.408 274.677 10.864 274.565 10.464C274.293 9.6 273.853 9.168 273.245 9.168C272.445 9.168 271.885 9.456 271.565 10.032C271.213 10.656 271.005 11.392 270.941 12.24C270.829 13.728 270.773 15.304 270.773 16.968C270.773 17.288 270.653 17.544 270.413 17.736C270.173 17.928 269.885 18.024 269.549 18.024C269.149 18.024 268.949 17.768 268.949 17.256ZM278.553 12.384C278.553 11.312 278.833 10.336 279.393 9.456C279.969 8.576 280.697 7.92 281.577 7.488C282.457 7.04 283.313 6.816 284.145 6.816C284.977 6.816 285.641 6.92 286.137 7.128C286.649 7.32 286.905 7.584 286.905 7.92C286.905 8.24 286.809 8.568 286.617 8.904C286.441 9.224 286.201 9.384 285.897 9.384C285.785 9.384 285.473 9.296 284.961 9.12C284.465 8.928 284.145 8.832 284.001 8.832C283.073 8.832 282.281 9.176 281.625 9.864C280.969 10.536 280.641 11.432 280.641 12.552C280.641 13.672 280.817 14.512 281.169 15.072C281.537 15.616 282.161 15.888 283.041 15.888C283.393 15.888 283.993 15.688 284.841 15.288C285.705 14.872 286.241 14.664 286.449 14.664C286.657 14.664 286.825 14.728 286.953 14.856C287.081 14.984 287.145 15.144 287.145 15.336C287.145 15.72 286.897 16.128 286.401 16.56C285.921 16.976 285.321 17.328 284.601 17.616C283.881 17.888 283.233 18.024 282.657 18.024C281.377 18.024 280.369 17.52 279.633 16.512C278.913 15.504 278.553 14.128 278.553 12.384ZM295.849 6.912C296.057 6.912 296.257 6.984 296.449 7.128C296.657 7.272 296.761 7.432 296.761 7.608C296.761 8.072 296.081 10.584 294.721 15.144C293.361 19.704 292.353 22.904 291.697 24.744C291.553 25.176 291.329 25.392 291.025 25.392C290.721 25.392 290.481 25.28 290.305 25.056C290.129 24.848 290.041 24.536 290.041 24.12C290.041 23.704 290.305 22.704 290.833 21.12C291.377 19.552 291.705 18.552 291.817 18.12C291.417 17.448 290.065 14.088 287.761 8.04C287.729 7.96 287.713 7.856 287.713 7.728C287.713 7.6 287.809 7.432 288.001 7.224C288.193 7.016 288.457 6.912 288.793 6.912C289.129 6.912 289.401 7.08 289.609 7.416C289.833 7.992 290.201 9 290.713 10.44C291.225 11.864 291.617 12.896 291.889 13.536C292.177 14.176 292.449 14.84 292.705 15.528C292.929 14.776 293.313 13.32 293.857 11.16C294.401 8.984 294.713 7.744 294.793 7.44C294.857 7.088 295.209 6.912 295.849 6.912ZM306.969 14.496L306.993 16.968C306.993 17.256 306.857 17.52 306.585 17.76C306.329 18 306.073 18.12 305.817 18.12C305.449 18.12 305.217 17.832 305.121 17.256C305.105 17.128 305.041 15.96 304.929 13.752C304.817 11.528 304.601 9.784 304.281 8.52C304.137 7.912 304.065 7.552 304.065 7.44C304.065 6.912 304.385 6.648 305.025 6.648C305.297 6.648 305.513 6.752 305.673 6.96C305.833 7.168 305.929 7.384 305.961 7.608C306.009 7.816 306.049 8.104 306.081 8.472C306.113 8.84 306.137 9.072 306.153 9.168C306.489 8.368 306.993 7.768 307.665 7.368C308.337 6.968 309.073 6.768 309.873 6.768C311.185 6.768 311.841 7.104 311.841 7.776C311.841 8.112 311.721 8.384 311.481 8.592C311.257 8.784 310.993 8.88 310.689 8.88C309.329 8.88 308.369 9.312 307.809 10.176C307.249 11.04 306.969 12.48 306.969 14.496ZM316.563 6.888C317.411 6.888 318.219 7.136 318.987 7.632C319.755 8.128 320.139 8.744 320.139 9.48C320.139 10.2 319.827 10.904 319.203 11.592C318.579 12.264 317.747 12.672 316.707 12.816C316.259 12.88 315.587 12.912 314.691 12.912C314.867 14.272 315.211 15.168 315.723 15.6C315.883 15.776 316.099 15.864 316.371 15.864C317.363 15.864 318.195 15.552 318.867 14.928C319.539 14.288 320.019 13.968 320.307 13.968C320.435 13.968 320.627 14.088 320.883 14.328C321.139 14.568 321.267 14.792 321.267 15C321.267 15.416 320.763 16.016 319.755 16.8C319.307 17.168 318.763 17.48 318.123 17.736C317.499 17.976 316.915 18.096 316.371 18.096C314.979 18.096 313.955 17.2 313.299 15.408C312.883 14.304 312.675 13.088 312.675 11.76C312.675 10.432 312.987 9.288 313.611 8.328C314.235 7.368 315.219 6.888 316.563 6.888ZM316.683 8.544C316.075 8.544 315.555 8.888 315.123 9.576C314.963 9.816 314.811 10.36 314.667 11.208C316.907 11.208 318.027 10.656 318.027 9.552C318.027 8.88 317.579 8.544 316.683 8.544ZM323.078 9.84C323.078 8.896 323.414 8.144 324.086 7.584C324.758 7.024 325.534 6.744 326.414 6.744C327.31 6.744 328.166 6.904 328.982 7.224C329.798 7.544 330.206 7.968 330.206 8.496C330.206 8.768 330.102 8.984 329.894 9.144C329.686 9.304 329.502 9.384 329.342 9.384C329.198 9.384 329.078 9.384 328.982 9.384C328.902 9.368 328.582 9.216 328.022 8.928C327.478 8.64 326.974 8.496 326.51 8.496C326.046 8.496 325.646 8.616 325.31 8.856C324.99 9.08 324.83 9.416 324.83 9.864C324.83 10.312 325.014 10.664 325.382 10.92C325.766 11.176 326.43 11.4 327.374 11.592C328.318 11.768 329.038 12.024 329.534 12.36C330.046 12.696 330.302 13.32 330.302 14.232C330.302 15.56 329.95 16.504 329.246 17.064C328.558 17.608 327.718 17.88 326.726 17.88C325.734 17.88 324.886 17.744 324.182 17.472C323.494 17.2 323.15 16.792 323.15 16.248C323.15 15.624 323.462 15.312 324.086 15.312C324.246 15.312 324.598 15.424 325.142 15.648C325.686 15.872 326.222 15.984 326.75 15.984C327.294 15.984 327.702 15.816 327.974 15.48C328.262 15.128 328.406 14.728 328.406 14.28C328.406 13.832 328.222 13.512 327.854 13.32C327.486 13.112 326.926 12.944 326.174 12.816C325.422 12.688 324.87 12.552 324.518 12.408C323.558 12.024 323.078 11.168 323.078 9.84ZM335.696 17.976C335.152 17.976 334.648 17.792 334.184 17.424C334.184 17.424 334.08 17.336 333.872 17.16V24.36C333.776 24.68 333.608 24.944 333.368 25.152C333.128 25.376 332.872 25.488 332.6 25.488C332.184 25.488 331.976 25.208 331.976 24.648V7.92C332.072 7.504 332.184 7.208 332.312 7.032C332.456 6.856 332.672 6.768 332.96 6.768C333.264 6.768 333.456 6.84 333.536 6.984C333.632 7.112 333.744 7.48 333.872 8.088C333.936 7.768 334.192 7.472 334.64 7.2C335.088 6.928 335.688 6.792 336.44 6.792C338.072 6.792 339.232 7.384 339.92 8.568C340.608 9.752 340.952 11.152 340.952 12.768C340.952 14.368 340.48 15.64 339.536 16.584C338.608 17.512 337.328 17.976 335.696 17.976ZM333.872 10.776V15.24C333.968 15.288 334.08 15.368 334.208 15.48C334.672 15.896 335.176 16.104 335.72 16.104C337.928 16.104 339.032 14.968 339.032 12.696C339.032 10.76 338.536 9.536 337.544 9.024C337.128 8.8 336.616 8.688 336.008 8.688C335.416 8.768 334.912 9.032 334.496 9.48C334.08 9.912 333.872 10.344 333.872 10.776ZM346.418 6.816C347.57 6.816 348.514 7.368 349.25 8.472C350.002 9.576 350.378 10.904 350.378 12.456C350.378 13.992 349.994 15.304 349.226 16.392C348.474 17.48 347.466 18.024 346.202 18.024C344.954 18.024 343.946 17.472 343.178 16.368C342.41 15.248 342.026 14.008 342.026 12.648C342.026 10.904 342.378 9.512 343.082 8.472C343.834 7.368 344.946 6.816 346.418 6.816ZM346.13 8.784C345.458 8.784 344.906 9.136 344.474 9.84C344.042 10.544 343.826 11.288 343.826 12.072C343.826 13.288 344.066 14.216 344.546 14.856C345.026 15.496 345.57 15.816 346.178 15.816C347.266 15.816 347.962 15.344 348.266 14.4C348.394 13.952 348.458 13.392 348.458 12.72C348.458 10.096 347.682 8.784 346.13 8.784ZM352.762 17.256L352.498 7.512C352.498 7.208 352.602 6.96 352.81 6.768C353.018 6.576 353.226 6.48 353.434 6.48C353.946 6.48 354.242 6.696 354.322 7.128C354.386 7.56 354.418 8.008 354.418 8.472C355.282 7.336 356.362 6.768 357.658 6.768C359.642 6.768 360.634 9.032 360.634 13.56C360.634 13.976 360.634 14.608 360.634 15.456C360.634 16.288 360.586 16.896 360.49 17.28C360.378 17.76 360.034 18 359.458 18C359.074 18 358.882 17.744 358.882 17.232L358.906 15.888C358.906 14.032 358.842 12.768 358.714 12.096C358.602 11.408 358.49 10.864 358.378 10.464C358.106 9.6 357.666 9.168 357.058 9.168C356.258 9.168 355.698 9.456 355.378 10.032C355.026 10.656 354.818 11.392 354.754 12.24C354.642 13.728 354.586 15.304 354.586 16.968C354.586 17.288 354.466 17.544 354.226 17.736C353.986 17.928 353.698 18.024 353.362 18.024C352.962 18.024 352.762 17.768 352.762 17.256ZM363.109 9.84C363.109 8.896 363.445 8.144 364.117 7.584C364.789 7.024 365.565 6.744 366.445 6.744C367.341 6.744 368.197 6.904 369.013 7.224C369.829 7.544 370.237 7.968 370.237 8.496C370.237 8.768 370.133 8.984 369.925 9.144C369.717 9.304 369.533 9.384 369.373 9.384C369.229 9.384 369.109 9.384 369.013 9.384C368.933 9.368 368.613 9.216 368.053 8.928C367.509 8.64 367.005 8.496 366.541 8.496C366.077 8.496 365.677 8.616 365.341 8.856C365.021 9.08 364.861 9.416 364.861 9.864C364.861 10.312 365.045 10.664 365.413 10.92C365.797 11.176 366.461 11.4 367.405 11.592C368.349 11.768 369.069 12.024 369.565 12.36C370.077 12.696 370.333 13.32 370.333 14.232C370.333 15.56 369.981 16.504 369.277 17.064C368.589 17.608 367.749 17.88 366.757 17.88C365.765 17.88 364.917 17.744 364.213 17.472C363.525 17.2 363.181 16.792 363.181 16.248C363.181 15.624 363.493 15.312 364.117 15.312C364.277 15.312 364.629 15.424 365.173 15.648C365.717 15.872 366.253 15.984 366.781 15.984C367.325 15.984 367.733 15.816 368.005 15.48C368.293 15.128 368.437 14.728 368.437 14.28C368.437 13.832 368.253 13.512 367.885 13.32C367.517 13.112 366.957 12.944 366.205 12.816C365.453 12.688 364.901 12.552 364.549 12.408C363.589 12.024 363.109 11.168 363.109 9.84ZM375.391 6.888C376.239 6.888 377.047 7.136 377.815 7.632C378.583 8.128 378.967 8.744 378.967 9.48C378.967 10.2 378.655 10.904 378.031 11.592C377.407 12.264 376.575 12.672 375.535 12.816C375.087 12.88 374.415 12.912 373.519 12.912C373.695 14.272 374.039 15.168 374.551 15.6C374.711 15.776 374.927 15.864 375.199 15.864C376.191 15.864 377.023 15.552 377.695 14.928C378.367 14.288 378.847 13.968 379.135 13.968C379.263 13.968 379.455 14.088 379.711 14.328C379.967 14.568 380.095 14.792 380.095 15C380.095 15.416 379.591 16.016 378.583 16.8C378.135 17.168 377.591 17.48 376.951 17.736C376.327 17.976 375.743 18.096 375.199 18.096C373.807 18.096 372.783 17.2 372.127 15.408C371.711 14.304 371.503 13.088 371.503 11.76C371.503 10.432 371.815 9.288 372.439 8.328C373.063 7.368 374.047 6.888 375.391 6.888ZM375.511 8.544C374.903 8.544 374.383 8.888 373.951 9.576C373.791 9.816 373.639 10.36 373.495 11.208C375.735 11.208 376.855 10.656 376.855 9.552C376.855 8.88 376.407 8.544 375.511 8.544ZM387.629 6.792L388.829 6.816C389.101 6.816 389.253 6.808 389.285 6.792V1.872C389.301 1.6 389.437 1.368 389.693 1.176C389.949 0.983999 390.189 0.887999 390.413 0.887999C390.637 0.887999 390.813 0.959999 390.941 1.104C391.085 1.248 391.149 1.472 391.133 1.776C391.117 2.08 391.109 3.744 391.109 6.768L393.917 6.672C394.397 6.672 394.637 6.952 394.637 7.512C394.637 7.928 394.509 8.24 394.253 8.448C394.013 8.656 393.749 8.768 393.461 8.784C393.189 8.8 392.917 8.808 392.645 8.808L391.181 8.784C391.181 9.44 391.245 10.736 391.373 12.672C391.517 14.608 391.629 15.864 391.709 16.44C391.789 17 391.805 17.368 391.757 17.544C391.709 17.704 391.621 17.816 391.493 17.88C391.285 17.976 391.005 18.024 390.653 18.024C390.301 18.024 390.093 17.832 390.029 17.448C389.709 15.352 389.493 12.472 389.381 8.808C389.237 8.824 388.685 8.832 387.725 8.832C386.765 8.832 386.285 8.552 386.285 7.992C386.285 7.192 386.733 6.792 387.629 6.792ZM398.735 6.888C399.583 6.888 400.391 7.136 401.159 7.632C401.927 8.128 402.311 8.744 402.311 9.48C402.311 10.2 401.999 10.904 401.375 11.592C400.751 12.264 399.919 12.672 398.879 12.816C398.431 12.88 397.759 12.912 396.863 12.912C397.039 14.272 397.383 15.168 397.895 15.6C398.055 15.776 398.271 15.864 398.543 15.864C399.535 15.864 400.367 15.552 401.039 14.928C401.711 14.288 402.191 13.968 402.479 13.968C402.607 13.968 402.799 14.088 403.055 14.328C403.311 14.568 403.439 14.792 403.439 15C403.439 15.416 402.935 16.016 401.927 16.8C401.479 17.168 400.935 17.48 400.295 17.736C399.671 17.976 399.087 18.096 398.543 18.096C397.151 18.096 396.127 17.2 395.471 15.408C395.055 14.304 394.847 13.088 394.847 11.76C394.847 10.432 395.159 9.288 395.783 8.328C396.407 7.368 397.391 6.888 398.735 6.888ZM398.855 8.544C398.247 8.544 397.727 8.888 397.295 9.576C397.135 9.816 396.983 10.36 396.839 11.208C399.079 11.208 400.199 10.656 400.199 9.552C400.199 8.88 399.751 8.544 398.855 8.544ZM404.506 12.384C404.506 11.312 404.786 10.336 405.346 9.456C405.922 8.576 406.65 7.92 407.53 7.488C408.41 7.04 409.266 6.816 410.098 6.816C410.93 6.816 411.594 6.92 412.09 7.128C412.602 7.32 412.858 7.584 412.858 7.92C412.858 8.24 412.762 8.568 412.57 8.904C412.394 9.224 412.154 9.384 411.85 9.384C411.738 9.384 411.426 9.296 410.914 9.12C410.418 8.928 410.098 8.832 409.954 8.832C409.026 8.832 408.234 9.176 407.578 9.864C406.922 10.536 406.594 11.432 406.594 12.552C406.594 13.672 406.77 14.512 407.122 15.072C407.49 15.616 408.114 15.888 408.994 15.888C409.346 15.888 409.946 15.688 410.794 15.288C411.658 14.872 412.194 14.664 412.402 14.664C412.61 14.664 412.778 14.728 412.906 14.856C413.034 14.984 413.098 15.144 413.098 15.336C413.098 15.72 412.85 16.128 412.354 16.56C411.874 16.976 411.274 17.328 410.554 17.616C409.834 17.888 409.186 18.024 408.61 18.024C407.33 18.024 406.322 17.52 405.586 16.512C404.866 15.504 404.506 14.128 404.506 12.384ZM416.714 10.224L416.906 15.888C416.906 16.592 416.874 17 416.81 17.112C416.778 17.4 416.682 17.624 416.522 17.784C416.378 17.944 416.09 18.024 415.658 18.024C415.45 18.024 415.282 17.896 415.154 17.64C415.026 17.368 414.954 17.064 414.938 16.728C414.826 13.912 414.674 11.272 414.482 8.808C414.306 6.328 414.218 4.024 414.218 1.896C414.218 1.56 414.33 1.296 414.554 1.104C414.778 0.911999 415.042 0.816 415.346 0.816C415.794 0.816 416.058 1.2 416.138 1.968C416.234 2.736 416.29 3.696 416.306 4.848C416.338 6 416.37 6.84 416.402 7.368C417.202 6.952 418.002 6.744 418.802 6.744C420.658 6.744 421.834 7.56 422.33 9.192C422.618 10.12 422.762 11.312 422.762 12.768C422.762 13.248 422.714 14.008 422.618 15.048C422.538 16.072 422.49 16.736 422.474 17.04C422.458 17.344 422.322 17.584 422.066 17.76C421.826 17.92 421.562 18 421.274 18C420.826 18 420.602 17.76 420.602 17.28L420.77 13.104C420.77 12.752 420.754 12.168 420.722 11.352C420.69 10.536 420.522 9.888 420.218 9.408C419.93 8.928 419.418 8.688 418.682 8.688C417.37 8.688 416.714 9.2 416.714 10.224ZM425.137 17.256L424.873 7.512C424.873 7.208 424.977 6.96 425.185 6.768C425.393 6.576 425.601 6.48 425.809 6.48C426.321 6.48 426.617 6.696 426.697 7.128C426.761 7.56 426.793 8.008 426.793 8.472C427.657 7.336 428.737 6.768 430.033 6.768C432.017 6.768 433.009 9.032 433.009 13.56C433.009 13.976 433.009 14.608 433.009 15.456C433.009 16.288 432.961 16.896 432.865 17.28C432.753 17.76 432.409 18 431.833 18C431.449 18 431.257 17.744 431.257 17.232L431.281 15.888C431.281 14.032 431.217 12.768 431.089 12.096C430.977 11.408 430.865 10.864 430.753 10.464C430.481 9.6 430.041 9.168 429.433 9.168C428.633 9.168 428.073 9.456 427.753 10.032C427.401 10.656 427.193 11.392 427.129 12.24C427.017 13.728 426.961 15.304 426.961 16.968C426.961 17.288 426.841 17.544 426.601 17.736C426.361 17.928 426.073 18.024 425.737 18.024C425.337 18.024 425.137 17.768 425.137 17.256ZM439.324 6.816C440.476 6.816 441.42 7.368 442.156 8.472C442.908 9.576 443.284 10.904 443.284 12.456C443.284 13.992 442.9 15.304 442.132 16.392C441.38 17.48 440.372 18.024 439.108 18.024C437.86 18.024 436.852 17.472 436.084 16.368C435.316 15.248 434.932 14.008 434.932 12.648C434.932 10.904 435.284 9.512 435.988 8.472C436.74 7.368 437.852 6.816 439.324 6.816ZM439.036 8.784C438.364 8.784 437.812 9.136 437.38 9.84C436.948 10.544 436.732 11.288 436.732 12.072C436.732 13.288 436.972 14.216 437.452 14.856C437.932 15.496 438.476 15.816 439.084 15.816C440.172 15.816 440.868 15.344 441.172 14.4C441.3 13.952 441.364 13.392 441.364 12.72C441.364 10.096 440.588 8.784 439.036 8.784ZM444.684 2.472C444.732 1.864 444.828 1.472 444.972 1.296C445.132 1.104 445.38 1.008 445.716 1.008C446.404 1.008 446.748 1.288 446.748 1.848C446.748 2.28 446.708 3.408 446.628 5.232C446.564 7.056 446.532 8.688 446.532 10.128C446.532 11.568 446.588 12.728 446.7 13.608C446.892 15.144 447.164 15.912 447.516 15.912C447.868 15.912 448.132 15.664 448.308 15.168C448.388 14.976 448.516 14.808 448.692 14.664C448.868 14.504 449.092 14.424 449.364 14.424C449.924 14.424 450.204 14.896 450.204 15.84C450.204 16.352 449.924 16.864 449.364 17.376C448.82 17.872 448.276 18.12 447.732 18.12C447.188 18.12 446.748 18.032 446.412 17.856C446.092 17.664 445.828 17.384 445.62 17.016C445.428 16.648 445.268 16.296 445.14 15.96C445.028 15.608 444.948 15.184 444.9 14.688C444.804 13.888 444.732 12.608 444.684 10.848C444.652 9.072 444.636 7.384 444.636 5.784C444.636 4.168 444.652 3.064 444.684 2.472ZM455.379 6.816C456.531 6.816 457.475 7.368 458.211 8.472C458.963 9.576 459.339 10.904 459.339 12.456C459.339 13.992 458.955 15.304 458.187 16.392C457.435 17.48 456.427 18.024 455.163 18.024C453.915 18.024 452.907 17.472 452.139 16.368C451.371 15.248 450.987 14.008 450.987 12.648C450.987 10.904 451.339 9.512 452.043 8.472C452.795 7.368 453.907 6.816 455.379 6.816ZM455.091 8.784C454.419 8.784 453.867 9.136 453.435 9.84C453.003 10.544 452.787 11.288 452.787 12.072C452.787 13.288 453.027 14.216 453.507 14.856C453.987 15.496 454.531 15.816 455.139 15.816C456.227 15.816 456.923 15.344 457.227 14.4C457.355 13.952 457.419 13.392 457.419 12.72C457.419 10.096 456.643 8.784 455.091 8.784ZM467.698 17.016C467.122 17.688 466.394 18.024 465.514 18.024C464.634 18.024 463.874 17.752 463.234 17.208C461.89 16.168 461.218 14.576 461.218 12.432C461.218 10.752 461.682 9.408 462.61 8.4C463.538 7.376 464.682 6.864 466.042 6.864C467.402 6.864 468.33 7.328 468.826 8.256C469.258 9.072 469.474 10.304 469.474 11.952L469.426 13.92C469.426 14.848 469.466 16.136 469.546 17.784C469.642 19.416 469.69 20.648 469.69 21.48C469.69 22.856 469.346 23.864 468.658 24.504C467.986 25.16 466.954 25.488 465.562 25.488C464.73 25.488 463.882 25.312 463.018 24.96C462.154 24.608 461.722 24.2 461.722 23.736C461.722 23.4 461.81 23.144 461.986 22.968C462.178 22.792 462.394 22.704 462.634 22.704C462.874 22.704 463.41 22.88 464.242 23.232C465.09 23.584 465.698 23.76 466.066 23.76C467.218 23.76 467.794 22.816 467.794 20.928C467.794 19.04 467.762 17.736 467.698 17.016ZM467.674 11.952C467.674 10.784 467.498 9.968 467.146 9.504C466.81 9.024 466.274 8.784 465.538 8.784C464.802 8.784 464.21 9.12 463.762 9.792C463.314 10.464 463.09 11.32 463.09 12.36C463.09 13.384 463.298 14.2 463.714 14.808C464.146 15.416 464.802 15.72 465.682 15.72C466.562 15.72 467.13 15.344 467.386 14.592C467.578 13.984 467.674 13.104 467.674 11.952ZM479.154 6.912C479.362 6.912 479.562 6.984 479.754 7.128C479.962 7.272 480.066 7.432 480.066 7.608C480.066 8.072 479.386 10.584 478.026 15.144C476.666 19.704 475.658 22.904 475.002 24.744C474.858 25.176 474.634 25.392 474.33 25.392C474.026 25.392 473.786 25.28 473.61 25.056C473.434 24.848 473.346 24.536 473.346 24.12C473.346 23.704 473.61 22.704 474.138 21.12C474.682 19.552 475.01 18.552 475.122 18.12C474.722 17.448 473.37 14.088 471.066 8.04C471.034 7.96 471.018 7.856 471.018 7.728C471.018 7.6 471.114 7.432 471.306 7.224C471.498 7.016 471.762 6.912 472.098 6.912C472.434 6.912 472.706 7.08 472.914 7.416C473.138 7.992 473.506 9 474.018 10.44C474.53 11.864 474.922 12.896 475.194 13.536C475.482 14.176 475.754 14.84 476.01 15.528C476.234 14.776 476.618 13.32 477.162 11.16C477.706 8.984 478.018 7.744 478.098 7.44C478.162 7.088 478.514 6.912 479.154 6.912Z" fill="#326BFF"/>
</svg>
