<svg width="319" height="26" viewBox="0 0 319 26" fill="none" xmlns="http://www.w3.org/2000/svg">
<path d="M3.48 10.224L3.672 15.888C3.672 16.592 3.64 17 3.576 17.112C3.544 17.4 3.448 17.624 3.288 17.784C3.144 17.944 2.856 18.024 2.424 18.024C2.216 18.024 2.048 17.896 1.92 17.64C1.792 17.368 1.72 17.064 1.704 16.728C1.592 13.912 1.44 11.272 1.248 8.808C1.072 6.328 0.984 4.024 0.984 1.896C0.984 1.56 1.096 1.296 1.32 1.104C1.544 0.911999 1.808 0.816 2.112 0.816C2.56 0.816 2.824 1.2 2.904 1.968C3 2.736 3.056 3.696 3.072 4.848C3.104 6 3.136 6.84 3.168 7.368C3.968 6.952 4.768 6.744 5.568 6.744C7.424 6.744 8.6 7.56 9.096 9.192C9.384 10.12 9.528 11.312 9.528 12.768C9.528 13.248 9.48 14.008 9.384 15.048C9.304 16.072 9.256 16.736 9.24 17.04C9.224 17.344 9.088 17.584 8.832 17.76C8.592 17.92 8.328 18 8.04 18C7.592 18 7.368 17.76 7.368 17.28L7.536 13.104C7.536 12.752 7.52 12.168 7.488 11.352C7.456 10.536 7.288 9.888 6.984 9.408C6.696 8.928 6.184 8.688 5.448 8.688C4.136 8.688 3.48 9.2 3.48 10.224ZM14.4461 6.888C15.2941 6.888 16.1021 7.136 16.8701 7.632C17.6381 8.128 18.0221 8.744 18.0221 9.48C18.0221 10.2 17.7101 10.904 17.0861 11.592C16.4621 12.264 15.6301 12.672 14.5901 12.816C14.1421 12.88 13.4701 12.912 12.5741 12.912C12.7501 14.272 13.0941 15.168 13.6061 15.6C13.7661 15.776 13.9821 15.864 14.2541 15.864C15.2461 15.864 16.0781 15.552 16.7501 14.928C17.4221 14.288 17.9021 13.968 18.1901 13.968C18.3181 13.968 18.5101 14.088 18.7661 14.328C19.0221 14.568 19.1501 14.792 19.1501 15C19.1501 15.416 18.6461 16.016 17.6381 16.8C17.1901 17.168 16.6461 17.48 16.0061 17.736C15.3821 17.976 14.7981 18.096 14.2541 18.096C12.8621 18.096 11.8381 17.2 11.1821 15.408C10.7661 14.304 10.5581 13.088 10.5581 11.76C10.5581 10.432 10.8701 9.288 11.4941 8.328C12.1181 7.368 13.1021 6.888 14.4461 6.888ZM14.5661 8.544C13.9581 8.544 13.4381 8.888 13.0061 9.576C12.8461 9.816 12.6941 10.36 12.5501 11.208C14.7901 11.208 15.9101 10.656 15.9101 9.552C15.9101 8.88 15.4621 8.544 14.5661 8.544ZM20.4806 2.472C20.5286 1.864 20.6246 1.472 20.7686 1.296C20.9286 1.104 21.1766 1.008 21.5126 1.008C22.2006 1.008 22.5446 1.288 22.5446 1.848C22.5446 2.28 22.5046 3.408 22.4246 5.232C22.3606 7.056 22.3286 8.688 22.3286 10.128C22.3286 11.568 22.3846 12.728 22.4966 13.608C22.6886 15.144 22.9606 15.912 23.3126 15.912C23.6646 15.912 23.9286 15.664 24.1046 15.168C24.1846 14.976 24.3126 14.808 24.4886 14.664C24.6646 14.504 24.8886 14.424 25.1606 14.424C25.7206 14.424 26.0006 14.896 26.0006 15.84C26.0006 16.352 25.7206 16.864 25.1606 17.376C24.6166 17.872 24.0726 18.12 23.5286 18.12C22.9846 18.12 22.5446 18.032 22.2086 17.856C21.8886 17.664 21.6246 17.384 21.4166 17.016C21.2246 16.648 21.0646 16.296 20.9366 15.96C20.8246 15.608 20.7446 15.184 20.6966 14.688C20.6006 13.888 20.5286 12.608 20.4806 10.848C20.4486 9.072 20.4326 7.384 20.4326 5.784C20.4326 4.168 20.4486 3.064 20.4806 2.472ZM30.7196 17.976C30.1756 17.976 29.6716 17.792 29.2076 17.424C29.2076 17.424 29.1036 17.336 28.8956 17.16V24.36C28.7996 24.68 28.6316 24.944 28.3916 25.152C28.1516 25.376 27.8956 25.488 27.6236 25.488C27.2076 25.488 26.9996 25.208 26.9996 24.648V7.92C27.0956 7.504 27.2076 7.208 27.3356 7.032C27.4796 6.856 27.6956 6.768 27.9836 6.768C28.2876 6.768 28.4796 6.84 28.5596 6.984C28.6556 7.112 28.7676 7.48 28.8956 8.088C28.9596 7.768 29.2156 7.472 29.6636 7.2C30.1116 6.928 30.7116 6.792 31.4636 6.792C33.0956 6.792 34.2556 7.384 34.9436 8.568C35.6316 9.752 35.9756 11.152 35.9756 12.768C35.9756 14.368 35.5036 15.64 34.5596 16.584C33.6316 17.512 32.3516 17.976 30.7196 17.976ZM28.8956 10.776V15.24C28.9916 15.288 29.1036 15.368 29.2316 15.48C29.6956 15.896 30.1996 16.104 30.7436 16.104C32.9516 16.104 34.0556 14.968 34.0556 12.696C34.0556 10.76 33.5596 9.536 32.5676 9.024C32.1516 8.8 31.6396 8.688 31.0316 8.688C30.4396 8.768 29.9356 9.032 29.5196 9.48C29.1036 9.912 28.8956 10.344 28.8956 10.776ZM38.7773 2.832C39.0653 2.832 39.3373 2.968 39.5933 3.24C39.8493 3.512 39.9773 3.8 39.9773 4.104C39.9773 4.392 39.8333 4.688 39.5453 4.992C39.2733 5.296 38.9853 5.448 38.6813 5.448C38.3773 5.448 38.0973 5.32 37.8413 5.064C37.6013 4.808 37.4813 4.48 37.4813 4.08C37.4813 3.312 37.8973 2.896 38.7293 2.832C38.7453 2.832 38.7613 2.832 38.7773 2.832ZM39.7853 15.408L39.8092 17.088C39.8092 17.392 39.6892 17.648 39.4492 17.856C39.2093 18.048 38.9533 18.144 38.6813 18.144C38.2813 18.144 38.0733 17.944 38.0573 17.544C37.8493 12.44 37.7453 9.616 37.7453 9.072C37.7453 8.528 37.7693 7.864 37.8173 7.08C37.8493 6.792 38.0333 6.648 38.3693 6.648C39.2173 6.648 39.6973 6.992 39.8092 7.68C39.8573 8.032 39.8813 8.312 39.8813 8.52L39.7853 10.032V15.408ZM43.4724 17.256L43.2084 7.512C43.2084 7.208 43.3124 6.96 43.5204 6.768C43.7284 6.576 43.9364 6.48 44.1444 6.48C44.6564 6.48 44.9524 6.696 45.0324 7.128C45.0964 7.56 45.1284 8.008 45.1284 8.472C45.9924 7.336 47.0724 6.768 48.3684 6.768C50.3524 6.768 51.3444 9.032 51.3444 13.56C51.3444 13.976 51.3444 14.608 51.3444 15.456C51.3444 16.288 51.2964 16.896 51.2004 17.28C51.0884 17.76 50.7444 18 50.1684 18C49.7844 18 49.5924 17.744 49.5924 17.232L49.6164 15.888C49.6164 14.032 49.5524 12.768 49.4244 12.096C49.3124 11.408 49.2004 10.864 49.0884 10.464C48.8164 9.6 48.3764 9.168 47.7684 9.168C46.9684 9.168 46.4084 9.456 46.0884 10.032C45.7364 10.656 45.5284 11.392 45.4644 12.24C45.3524 13.728 45.2964 15.304 45.2964 16.968C45.2964 17.288 45.1764 17.544 44.9364 17.736C44.6964 17.928 44.4084 18.024 44.0724 18.024C43.6724 18.024 43.4724 17.768 43.4724 17.256ZM60.3 17.016C59.724 17.688 58.996 18.024 58.116 18.024C57.236 18.024 56.476 17.752 55.836 17.208C54.492 16.168 53.82 14.576 53.82 12.432C53.82 10.752 54.284 9.408 55.212 8.4C56.14 7.376 57.284 6.864 58.644 6.864C60.004 6.864 60.932 7.328 61.428 8.256C61.86 9.072 62.076 10.304 62.076 11.952L62.028 13.92C62.028 14.848 62.068 16.136 62.148 17.784C62.244 19.416 62.292 20.648 62.292 21.48C62.292 22.856 61.948 23.864 61.26 24.504C60.588 25.16 59.556 25.488 58.164 25.488C57.332 25.488 56.484 25.312 55.62 24.96C54.756 24.608 54.324 24.2 54.324 23.736C54.324 23.4 54.412 23.144 54.588 22.968C54.78 22.792 54.996 22.704 55.236 22.704C55.476 22.704 56.012 22.88 56.844 23.232C57.692 23.584 58.3 23.76 58.668 23.76C59.82 23.76 60.396 22.816 60.396 20.928C60.396 19.04 60.364 17.736 60.3 17.016ZM60.276 11.952C60.276 10.784 60.1 9.968 59.748 9.504C59.412 9.024 58.876 8.784 58.14 8.784C57.404 8.784 56.812 9.12 56.364 9.792C55.916 10.464 55.692 11.32 55.692 12.36C55.692 13.384 55.9 14.2 56.316 14.808C56.748 15.416 57.404 15.72 58.284 15.72C59.164 15.72 59.732 15.344 59.988 14.592C60.18 13.984 60.276 13.104 60.276 11.952ZM77.2868 6.912C77.4948 6.912 77.6948 6.984 77.8868 7.128C78.0948 7.272 78.1988 7.432 78.1988 7.608C78.1988 8.072 77.5188 10.584 76.1588 15.144C74.7988 19.704 73.7908 22.904 73.1348 24.744C72.9908 25.176 72.7668 25.392 72.4628 25.392C72.1588 25.392 71.9188 25.28 71.7428 25.056C71.5668 24.848 71.4788 24.536 71.4788 24.12C71.4788 23.704 71.7428 22.704 72.2708 21.12C72.8148 19.552 73.1428 18.552 73.2548 18.12C72.8548 17.448 71.5028 14.088 69.1988 8.04C69.1668 7.96 69.1508 7.856 69.1508 7.728C69.1508 7.6 69.2468 7.432 69.4388 7.224C69.6308 7.016 69.8948 6.912 70.2308 6.912C70.5668 6.912 70.8388 7.08 71.0468 7.416C71.2708 7.992 71.6388 9 72.1508 10.44C72.6628 11.864 73.0548 12.896 73.3268 13.536C73.6148 14.176 73.8868 14.84 74.1428 15.528C74.3668 14.776 74.7508 13.32 75.2948 11.16C75.8388 8.984 76.1508 7.744 76.2308 7.44C76.2948 7.088 76.6468 6.912 77.2868 6.912ZM84.0272 6.816C85.1792 6.816 86.1232 7.368 86.8592 8.472C87.6112 9.576 87.9872 10.904 87.9872 12.456C87.9872 13.992 87.6032 15.304 86.8352 16.392C86.0832 17.48 85.0752 18.024 83.8112 18.024C82.5632 18.024 81.5552 17.472 80.7872 16.368C80.0192 15.248 79.6352 14.008 79.6352 12.648C79.6352 10.904 79.9872 9.512 80.6912 8.472C81.4432 7.368 82.5552 6.816 84.0272 6.816ZM83.7392 8.784C83.0672 8.784 82.5152 9.136 82.0832 9.84C81.6512 10.544 81.4352 11.288 81.4352 12.072C81.4352 13.288 81.6752 14.216 82.1552 14.856C82.6352 15.496 83.1792 15.816 83.7872 15.816C84.8752 15.816 85.5712 15.344 85.8752 14.4C86.0032 13.952 86.0672 13.392 86.0672 12.72C86.0672 10.096 85.2912 8.784 83.7392 8.784ZM89.4109 7.728C89.4749 7.456 89.6109 7.232 89.8189 7.056C90.0269 6.864 90.2349 6.768 90.4429 6.768C90.6669 6.768 90.8349 6.808 90.9469 6.888C91.0749 6.968 91.1469 7.04 91.1629 7.104C91.1949 7.168 91.2269 7.28 91.2589 7.44C91.1629 8.688 91.1149 9.816 91.1149 10.824C91.1149 11.816 91.2349 12.96 91.4749 14.256C91.7149 15.536 91.9789 16.176 92.2669 16.176C92.6989 16.176 93.2429 15.936 93.8989 15.456C94.5709 14.976 95.0509 14.472 95.3389 13.944C95.1469 11.64 95.0509 9.664 95.0509 8.016C95.0509 7.68 95.1549 7.392 95.3629 7.152C95.5869 6.912 95.8509 6.792 96.1549 6.792C96.6509 6.792 96.8989 7.128 96.8989 7.8C96.8989 8.936 96.9789 10.624 97.1389 12.864C97.3149 15.104 97.4909 16.528 97.6669 17.136C97.6989 17.264 97.7149 17.416 97.7149 17.592C97.7149 17.752 97.6029 17.904 97.3789 18.048C97.1709 18.208 96.8909 18.288 96.5389 18.288C96.2029 18.288 95.9789 18.096 95.8669 17.712C95.8349 17.392 95.7549 16.912 95.6269 16.272C94.5069 17.44 93.3789 18.024 92.2429 18.024C91.7149 18.024 91.2429 17.824 90.8269 17.424C90.4109 17.024 90.0829 16.48 89.8429 15.792C89.4269 14.464 89.2189 13.216 89.2189 12.048C89.2189 10.88 89.2829 9.44 89.4109 7.728ZM106.592 17.976C106.048 17.976 105.52 16.92 105.008 14.808C104.512 12.68 104.264 10.296 104.264 7.656C104.264 7.384 104.376 7.176 104.6 7.032C104.84 6.872 105.056 6.792 105.248 6.792C105.44 6.792 105.592 6.856 105.704 6.984C105.832 7.096 105.896 7.248 105.896 7.44C105.896 9.936 106.32 12.336 107.168 14.64C107.296 14.448 107.496 14.064 107.768 13.488C108.04 12.896 108.296 12.464 108.536 12.192C108.776 11.92 109.064 11.784 109.4 11.784C109.736 11.784 110.088 12.032 110.456 12.528C110.824 13.024 111.136 13.56 111.392 14.136C111.664 14.696 111.816 14.992 111.848 15.024C112.28 13.68 112.496 12.432 112.496 11.28L112.352 7.632C112.336 7.392 112.448 7.192 112.688 7.032C112.928 6.856 113.16 6.768 113.384 6.768C113.848 6.768 114.08 7.672 114.08 9.48V10.8C114.08 12.944 113.752 14.856 113.096 16.536C112.744 17.496 112.304 17.976 111.776 17.976C111.472 17.976 111.192 17.784 110.936 17.4C110.68 17 110.392 16.44 110.072 15.72C109.752 15 109.504 14.504 109.328 14.232L108.608 15.648C108.336 16.208 108.128 16.616 107.984 16.872C107.84 17.112 107.64 17.36 107.384 17.616C107.128 17.856 106.864 17.976 106.592 17.976ZM119.957 6.816C121.109 6.816 122.053 7.368 122.789 8.472C123.541 9.576 123.917 10.904 123.917 12.456C123.917 13.992 123.533 15.304 122.765 16.392C122.013 17.48 121.005 18.024 119.741 18.024C118.493 18.024 117.485 17.472 116.717 16.368C115.949 15.248 115.565 14.008 115.565 12.648C115.565 10.904 115.917 9.512 116.621 8.472C117.373 7.368 118.485 6.816 119.957 6.816ZM119.669 8.784C118.997 8.784 118.445 9.136 118.013 9.84C117.581 10.544 117.365 11.288 117.365 12.072C117.365 13.288 117.605 14.216 118.085 14.856C118.565 15.496 119.109 15.816 119.717 15.816C120.805 15.816 121.501 15.344 121.805 14.4C121.933 13.952 121.997 13.392 121.997 12.72C121.997 10.096 121.221 8.784 119.669 8.784ZM128.485 14.496L128.509 16.968C128.509 17.256 128.373 17.52 128.101 17.76C127.845 18 127.589 18.12 127.333 18.12C126.965 18.12 126.733 17.832 126.637 17.256C126.621 17.128 126.557 15.96 126.445 13.752C126.333 11.528 126.117 9.784 125.797 8.52C125.653 7.912 125.581 7.552 125.581 7.44C125.581 6.912 125.901 6.648 126.541 6.648C126.813 6.648 127.029 6.752 127.189 6.96C127.349 7.168 127.445 7.384 127.477 7.608C127.525 7.816 127.565 8.104 127.597 8.472C127.629 8.84 127.653 9.072 127.669 9.168C128.005 8.368 128.509 7.768 129.181 7.368C129.853 6.968 130.589 6.768 131.389 6.768C132.701 6.768 133.357 7.104 133.357 7.776C133.357 8.112 133.237 8.384 132.997 8.592C132.773 8.784 132.509 8.88 132.205 8.88C130.845 8.88 129.885 9.312 129.325 10.176C128.765 11.04 128.485 12.48 128.485 14.496ZM143.191 16.92C143.191 17.672 142.847 18.048 142.159 18.048C141.871 18.048 141.479 17.344 140.983 15.936C140.487 14.512 139.823 13.416 138.991 12.648C138.911 12.76 138.567 13.08 137.959 13.608C137.367 14.12 137.015 14.432 136.903 14.544V16.944C136.871 17.184 136.831 17.368 136.783 17.496C136.735 17.624 136.623 17.744 136.447 17.856C136.287 17.968 136.063 18.024 135.775 18.024C135.343 18.024 135.127 17.76 135.127 17.232C135.127 15.744 135.063 13.44 134.935 10.32C134.807 7.184 134.743 4.376 134.743 1.896C134.743 1.592 134.863 1.352 135.103 1.176C135.359 1 135.623 0.912 135.895 0.912C136.263 0.912 136.487 1.144 136.567 1.608V5.856C136.567 6.368 136.575 6.752 136.591 7.008C136.607 7.264 136.623 7.648 136.639 8.16C136.671 9.216 136.727 10.408 136.807 11.736C137.271 11.384 137.863 10.832 138.583 10.08C139.319 9.312 139.871 8.656 140.239 8.112C140.815 7.2 141.343 6.744 141.823 6.744C141.951 6.744 142.079 6.776 142.207 6.84C142.543 7.032 142.711 7.256 142.711 7.512C142.711 7.768 142.599 8.104 142.375 8.52C141.799 9.512 141.135 10.416 140.383 11.232C141.103 12.032 141.823 13.176 142.543 14.664C142.975 15.624 143.191 16.376 143.191 16.92ZM156.811 6.792C157.515 6.792 157.867 7.392 157.867 8.592C157.867 8.72 157.867 8.856 157.867 9L157.819 10.68C157.803 11.208 157.795 11.728 157.795 12.24L158.155 17.664C158.155 18.064 157.747 18.264 156.931 18.264C156.883 18.264 156.763 18.264 156.571 18.264C156.395 18.264 156.267 18.192 156.187 18.048C156.123 17.904 156.115 17.728 156.163 17.52C156.227 17.312 156.211 17.08 156.115 16.824C155.379 17.608 154.403 18 153.187 18C150.931 18 149.803 16.256 149.803 12.768C149.803 10.832 150.163 9.368 150.883 8.376C151.619 7.384 152.667 6.888 154.027 6.888C154.667 6.888 155.307 7 155.947 7.224C156.155 6.936 156.443 6.792 156.811 6.792ZM154.315 8.976C153.403 8.976 152.723 9.24 152.275 9.768C151.827 10.296 151.603 11.264 151.603 12.672C151.603 15.04 152.243 16.224 153.523 16.224C153.859 16.224 154.227 16.072 154.627 15.768C155.043 15.464 155.331 15.12 155.491 14.736C155.795 13.872 155.947 12.928 155.947 11.904C155.947 10.88 155.819 10.136 155.563 9.672C155.323 9.208 154.907 8.976 154.315 8.976ZM160.426 17.256L160.162 7.512C160.162 7.208 160.266 6.96 160.474 6.768C160.682 6.576 160.89 6.48 161.098 6.48C161.61 6.48 161.906 6.696 161.986 7.128C162.05 7.56 162.082 8.008 162.082 8.472C162.946 7.336 164.026 6.768 165.322 6.768C167.306 6.768 168.298 9.032 168.298 13.56C168.298 13.976 168.298 14.608 168.298 15.456C168.298 16.288 168.25 16.896 168.154 17.28C168.042 17.76 167.698 18 167.122 18C166.738 18 166.546 17.744 166.546 17.232L166.57 15.888C166.57 14.032 166.506 12.768 166.378 12.096C166.266 11.408 166.154 10.864 166.042 10.464C165.77 9.6 165.33 9.168 164.722 9.168C163.922 9.168 163.362 9.456 163.042 10.032C162.69 10.656 162.482 11.392 162.418 12.24C162.306 13.728 162.25 15.304 162.25 16.968C162.25 17.288 162.13 17.544 161.89 17.736C161.65 17.928 161.362 18.024 161.026 18.024C160.626 18.024 160.426 17.768 160.426 17.256ZM176.101 6.768L176.077 2.136C176.077 1.272 176.349 0.839999 176.893 0.839999C177.453 0.839999 177.765 1.08 177.829 1.56C177.861 1.768 177.901 3.024 177.949 5.328C177.997 7.632 178.069 9.792 178.165 11.808C178.277 13.824 178.333 15.704 178.333 17.448C178.333 17.928 177.973 18.168 177.253 18.168C176.773 18.168 176.533 17.832 176.533 17.16C175.845 17.704 175.029 17.976 174.085 17.976C172.885 17.976 171.909 17.528 171.157 16.632C170.421 15.736 170.053 14.632 170.053 13.32C170.053 12.008 170.317 10.784 170.845 9.648C171.389 8.496 172.229 7.672 173.365 7.176C174.069 6.872 174.749 6.72 175.405 6.72C175.645 6.72 175.877 6.736 176.101 6.768ZM176.221 10.056C176.109 9.704 175.973 9.44 175.813 9.264C175.653 9.072 175.477 8.96 175.285 8.928C175.109 8.88 174.893 8.856 174.637 8.856C174.381 8.856 174.069 8.952 173.701 9.144C173.333 9.336 173.021 9.648 172.765 10.08C172.253 10.944 171.997 11.856 171.997 12.816C171.997 13.76 172.181 14.536 172.549 15.144C172.933 15.736 173.469 16.032 174.157 16.032C174.861 16.032 175.413 15.688 175.813 15C176.213 14.312 176.413 13.432 176.413 12.36C176.413 11.16 176.349 10.392 176.221 10.056ZM185.176 2.472C185.224 1.864 185.32 1.472 185.464 1.296C185.624 1.104 185.872 1.008 186.208 1.008C186.896 1.008 187.24 1.288 187.24 1.848C187.24 2.28 187.2 3.408 187.12 5.232C187.056 7.056 187.024 8.688 187.024 10.128C187.024 11.568 187.08 12.728 187.192 13.608C187.384 15.144 187.656 15.912 188.008 15.912C188.36 15.912 188.624 15.664 188.8 15.168C188.88 14.976 189.008 14.808 189.184 14.664C189.36 14.504 189.584 14.424 189.856 14.424C190.416 14.424 190.696 14.896 190.696 15.84C190.696 16.352 190.416 16.864 189.856 17.376C189.312 17.872 188.768 18.12 188.224 18.12C187.68 18.12 187.24 18.032 186.904 17.856C186.584 17.664 186.32 17.384 186.112 17.016C185.92 16.648 185.76 16.296 185.632 15.96C185.52 15.608 185.44 15.184 185.392 14.688C185.296 13.888 185.224 12.608 185.176 10.848C185.144 9.072 185.128 7.384 185.128 5.784C185.128 4.168 185.144 3.064 185.176 2.472ZM195.079 6.888C195.927 6.888 196.735 7.136 197.503 7.632C198.271 8.128 198.655 8.744 198.655 9.48C198.655 10.2 198.343 10.904 197.719 11.592C197.095 12.264 196.263 12.672 195.223 12.816C194.775 12.88 194.103 12.912 193.207 12.912C193.383 14.272 193.727 15.168 194.239 15.6C194.399 15.776 194.615 15.864 194.887 15.864C195.879 15.864 196.711 15.552 197.383 14.928C198.055 14.288 198.535 13.968 198.823 13.968C198.951 13.968 199.143 14.088 199.399 14.328C199.655 14.568 199.783 14.792 199.783 15C199.783 15.416 199.279 16.016 198.271 16.8C197.823 17.168 197.279 17.48 196.639 17.736C196.015 17.976 195.431 18.096 194.887 18.096C193.495 18.096 192.471 17.2 191.815 15.408C191.399 14.304 191.191 13.088 191.191 11.76C191.191 10.432 191.503 9.288 192.127 8.328C192.751 7.368 193.735 6.888 195.079 6.888ZM195.199 8.544C194.591 8.544 194.071 8.888 193.639 9.576C193.479 9.816 193.327 10.36 193.183 11.208C195.423 11.208 196.543 10.656 196.543 9.552C196.543 8.88 196.095 8.544 195.199 8.544ZM207.881 6.792C208.585 6.792 208.937 7.392 208.937 8.592C208.937 8.72 208.937 8.856 208.937 9L208.889 10.68C208.873 11.208 208.865 11.728 208.865 12.24L209.225 17.664C209.225 18.064 208.817 18.264 208.001 18.264C207.953 18.264 207.833 18.264 207.641 18.264C207.465 18.264 207.337 18.192 207.257 18.048C207.193 17.904 207.185 17.728 207.233 17.52C207.297 17.312 207.281 17.08 207.185 16.824C206.449 17.608 205.473 18 204.257 18C202.001 18 200.873 16.256 200.873 12.768C200.873 10.832 201.233 9.368 201.953 8.376C202.689 7.384 203.737 6.888 205.097 6.888C205.737 6.888 206.377 7 207.017 7.224C207.225 6.936 207.513 6.792 207.881 6.792ZM205.385 8.976C204.473 8.976 203.793 9.24 203.345 9.768C202.897 10.296 202.673 11.264 202.673 12.672C202.673 15.04 203.313 16.224 204.593 16.224C204.929 16.224 205.297 16.072 205.697 15.768C206.113 15.464 206.401 15.12 206.561 14.736C206.865 13.872 207.017 12.928 207.017 11.904C207.017 10.88 206.889 10.136 206.633 9.672C206.393 9.208 205.977 8.976 205.385 8.976ZM213.68 14.496L213.704 16.968C213.704 17.256 213.568 17.52 213.296 17.76C213.04 18 212.784 18.12 212.528 18.12C212.16 18.12 211.928 17.832 211.832 17.256C211.816 17.128 211.752 15.96 211.64 13.752C211.528 11.528 211.312 9.784 210.992 8.52C210.848 7.912 210.776 7.552 210.776 7.44C210.776 6.912 211.096 6.648 211.736 6.648C212.008 6.648 212.224 6.752 212.384 6.96C212.544 7.168 212.64 7.384 212.672 7.608C212.72 7.816 212.76 8.104 212.792 8.472C212.824 8.84 212.848 9.072 212.864 9.168C213.2 8.368 213.704 7.768 214.376 7.368C215.048 6.968 215.784 6.768 216.584 6.768C217.896 6.768 218.552 7.104 218.552 7.776C218.552 8.112 218.432 8.384 218.192 8.592C217.968 8.784 217.704 8.88 217.4 8.88C216.04 8.88 215.08 9.312 214.52 10.176C213.96 11.04 213.68 12.48 213.68 14.496ZM220.73 17.256L220.466 7.512C220.466 7.208 220.57 6.96 220.778 6.768C220.986 6.576 221.194 6.48 221.402 6.48C221.914 6.48 222.21 6.696 222.29 7.128C222.354 7.56 222.386 8.008 222.386 8.472C223.25 7.336 224.33 6.768 225.626 6.768C227.61 6.768 228.602 9.032 228.602 13.56C228.602 13.976 228.602 14.608 228.602 15.456C228.602 16.288 228.554 16.896 228.458 17.28C228.346 17.76 228.002 18 227.426 18C227.042 18 226.85 17.744 226.85 17.232L226.874 15.888C226.874 14.032 226.81 12.768 226.682 12.096C226.57 11.408 226.458 10.864 226.346 10.464C226.074 9.6 225.634 9.168 225.026 9.168C224.226 9.168 223.666 9.456 223.346 10.032C222.994 10.656 222.786 11.392 222.722 12.24C222.61 13.728 222.554 15.304 222.554 16.968C222.554 17.288 222.434 17.544 222.194 17.736C221.954 17.928 221.666 18.024 221.33 18.024C220.93 18.024 220.73 17.768 220.73 17.256ZM231.678 16.248C231.774 15.752 232.038 15.504 232.47 15.504C232.902 15.504 233.19 15.728 233.334 16.176C233.334 17.232 233.166 18.184 232.83 19.032C232.718 19.336 232.55 19.592 232.326 19.8C232.118 20.008 231.894 20.112 231.654 20.112C231.126 20.112 230.862 19.832 230.862 19.272C230.862 19.096 230.886 18.928 230.934 18.768C231.43 18.208 231.678 17.368 231.678 16.248ZM244.149 14.496L244.173 16.968C244.173 17.256 244.037 17.52 243.765 17.76C243.509 18 243.253 18.12 242.997 18.12C242.629 18.12 242.397 17.832 242.301 17.256C242.285 17.128 242.221 15.96 242.109 13.752C241.997 11.528 241.781 9.784 241.461 8.52C241.317 7.912 241.245 7.552 241.245 7.44C241.245 6.912 241.565 6.648 242.205 6.648C242.477 6.648 242.693 6.752 242.853 6.96C243.013 7.168 243.109 7.384 243.141 7.608C243.189 7.816 243.229 8.104 243.261 8.472C243.293 8.84 243.317 9.072 243.333 9.168C243.669 8.368 244.173 7.768 244.845 7.368C245.517 6.968 246.253 6.768 247.053 6.768C248.365 6.768 249.021 7.104 249.021 7.776C249.021 8.112 248.901 8.384 248.661 8.592C248.437 8.784 248.173 8.88 247.869 8.88C246.509 8.88 245.549 9.312 244.989 10.176C244.429 11.04 244.149 12.48 244.149 14.496ZM253.743 6.888C254.591 6.888 255.399 7.136 256.167 7.632C256.935 8.128 257.319 8.744 257.319 9.48C257.319 10.2 257.007 10.904 256.383 11.592C255.759 12.264 254.927 12.672 253.887 12.816C253.439 12.88 252.767 12.912 251.871 12.912C252.047 14.272 252.391 15.168 252.903 15.6C253.063 15.776 253.279 15.864 253.551 15.864C254.543 15.864 255.375 15.552 256.047 14.928C256.719 14.288 257.199 13.968 257.487 13.968C257.615 13.968 257.807 14.088 258.063 14.328C258.319 14.568 258.447 14.792 258.447 15C258.447 15.416 257.943 16.016 256.935 16.8C256.487 17.168 255.943 17.48 255.303 17.736C254.679 17.976 254.095 18.096 253.551 18.096C252.159 18.096 251.135 17.2 250.479 15.408C250.063 14.304 249.855 13.088 249.855 11.76C249.855 10.432 250.167 9.288 250.791 8.328C251.415 7.368 252.399 6.888 253.743 6.888ZM253.863 8.544C253.255 8.544 252.735 8.888 252.303 9.576C252.143 9.816 251.991 10.36 251.847 11.208C254.087 11.208 255.207 10.656 255.207 9.552C255.207 8.88 254.759 8.544 253.863 8.544ZM261.218 18.024C260.802 18.024 260.554 17.792 260.474 17.328C260.474 14.096 260.282 11.216 259.898 8.688C259.898 8.368 260.01 8.08 260.234 7.824C260.474 7.568 260.738 7.44 261.026 7.44C261.33 7.44 261.554 7.608 261.698 7.944C262.29 7.16 263.082 6.768 264.074 6.768C265.338 6.768 266.314 7.376 267.002 8.592C267.802 7.44 268.858 6.864 270.17 6.864C271.498 6.864 272.49 7.392 273.146 8.448C273.578 9.104 273.882 9.968 274.058 11.04C274.234 12.112 274.322 13.632 274.322 15.6C274.322 16.368 274.242 16.968 274.082 17.4C273.922 17.816 273.586 18.024 273.074 18.024C272.658 18.024 272.45 17.76 272.45 17.232L272.522 14.232C272.522 10.632 271.586 8.832 269.714 8.832C269.122 8.832 268.706 9.04 268.466 9.456C268.194 9.952 268.034 10.472 267.986 11.016C267.922 11.976 267.89 12.848 267.89 13.632V17.112C267.89 17.368 267.762 17.584 267.506 17.76C267.25 17.936 266.986 18.024 266.714 18.024C266.362 18.024 266.138 17.792 266.042 17.328L266.114 12.36C266.114 10.6 265.818 9.504 265.226 9.072C264.938 8.864 264.498 8.76 263.906 8.76C263.33 8.76 262.898 8.976 262.61 9.408C262.338 9.84 262.202 10.536 262.202 11.496L262.346 15.96C262.346 17.336 261.97 18.024 261.218 18.024ZM280.41 6.816C281.562 6.816 282.506 7.368 283.242 8.472C283.994 9.576 284.37 10.904 284.37 12.456C284.37 13.992 283.986 15.304 283.218 16.392C282.466 17.48 281.458 18.024 280.194 18.024C278.946 18.024 277.938 17.472 277.17 16.368C276.402 15.248 276.018 14.008 276.018 12.648C276.018 10.904 276.37 9.512 277.074 8.472C277.826 7.368 278.938 6.816 280.41 6.816ZM280.122 8.784C279.45 8.784 278.898 9.136 278.466 9.84C278.034 10.544 277.818 11.288 277.818 12.072C277.818 13.288 278.058 14.216 278.538 14.856C279.018 15.496 279.562 15.816 280.17 15.816C281.258 15.816 281.954 15.344 282.258 14.4C282.386 13.952 282.45 13.392 282.45 12.72C282.45 10.096 281.674 8.784 280.122 8.784ZM286.442 6.792L287.642 6.816C287.914 6.816 288.066 6.808 288.098 6.792V1.872C288.114 1.6 288.25 1.368 288.506 1.176C288.762 0.983999 289.002 0.887999 289.226 0.887999C289.45 0.887999 289.626 0.959999 289.754 1.104C289.898 1.248 289.962 1.472 289.946 1.776C289.93 2.08 289.922 3.744 289.922 6.768L292.73 6.672C293.21 6.672 293.45 6.952 293.45 7.512C293.45 7.928 293.322 8.24 293.066 8.448C292.826 8.656 292.562 8.768 292.274 8.784C292.002 8.8 291.73 8.808 291.458 8.808L289.994 8.784C289.994 9.44 290.058 10.736 290.186 12.672C290.33 14.608 290.442 15.864 290.522 16.44C290.602 17 290.618 17.368 290.57 17.544C290.522 17.704 290.434 17.816 290.306 17.88C290.098 17.976 289.818 18.024 289.466 18.024C289.114 18.024 288.906 17.832 288.842 17.448C288.522 15.352 288.306 12.472 288.194 8.808C288.05 8.824 287.498 8.832 286.538 8.832C285.578 8.832 285.098 8.552 285.098 7.992C285.098 7.192 285.546 6.792 286.442 6.792ZM297.548 6.888C298.396 6.888 299.204 7.136 299.972 7.632C300.74 8.128 301.124 8.744 301.124 9.48C301.124 10.2 300.812 10.904 300.188 11.592C299.564 12.264 298.732 12.672 297.692 12.816C297.244 12.88 296.572 12.912 295.676 12.912C295.852 14.272 296.196 15.168 296.708 15.6C296.868 15.776 297.084 15.864 297.356 15.864C298.348 15.864 299.18 15.552 299.852 14.928C300.524 14.288 301.004 13.968 301.292 13.968C301.42 13.968 301.612 14.088 301.868 14.328C302.124 14.568 302.252 14.792 302.252 15C302.252 15.416 301.748 16.016 300.74 16.8C300.292 17.168 299.748 17.48 299.108 17.736C298.484 17.976 297.9 18.096 297.356 18.096C295.964 18.096 294.94 17.2 294.284 15.408C293.868 14.304 293.66 13.088 293.66 11.76C293.66 10.432 293.972 9.288 294.596 8.328C295.22 7.368 296.204 6.888 297.548 6.888ZM297.668 8.544C297.06 8.544 296.54 8.888 296.108 9.576C295.948 9.816 295.796 10.36 295.652 11.208C297.892 11.208 299.012 10.656 299.012 9.552C299.012 8.88 298.564 8.544 297.668 8.544ZM303.582 2.472C303.63 1.864 303.726 1.472 303.87 1.296C304.03 1.104 304.278 1.008 304.614 1.008C305.302 1.008 305.646 1.288 305.646 1.848C305.646 2.28 305.606 3.408 305.526 5.232C305.462 7.056 305.43 8.688 305.43 10.128C305.43 11.568 305.486 12.728 305.598 13.608C305.79 15.144 306.062 15.912 306.414 15.912C306.766 15.912 307.03 15.664 307.206 15.168C307.286 14.976 307.414 14.808 307.59 14.664C307.766 14.504 307.99 14.424 308.262 14.424C308.822 14.424 309.102 14.896 309.102 15.84C309.102 16.352 308.822 16.864 308.262 17.376C307.718 17.872 307.174 18.12 306.63 18.12C306.086 18.12 305.646 18.032 305.31 17.856C304.99 17.664 304.726 17.384 304.518 17.016C304.326 16.648 304.166 16.296 304.038 15.96C303.926 15.608 303.846 15.184 303.798 14.688C303.702 13.888 303.63 12.608 303.582 10.848C303.55 9.072 303.534 7.384 303.534 5.784C303.534 4.168 303.55 3.064 303.582 2.472ZM317.685 6.912C317.893 6.912 318.093 6.984 318.285 7.128C318.493 7.272 318.597 7.432 318.597 7.608C318.597 8.072 317.917 10.584 316.557 15.144C315.197 19.704 314.189 22.904 313.533 24.744C313.389 25.176 313.165 25.392 312.861 25.392C312.557 25.392 312.317 25.28 312.141 25.056C311.965 24.848 311.877 24.536 311.877 24.12C311.877 23.704 312.141 22.704 312.669 21.12C313.213 19.552 313.541 18.552 313.653 18.12C313.253 17.448 311.901 14.088 309.597 8.04C309.565 7.96 309.549 7.856 309.549 7.728C309.549 7.6 309.645 7.432 309.837 7.224C310.029 7.016 310.293 6.912 310.629 6.912C310.965 6.912 311.237 7.08 311.445 7.416C311.669 7.992 312.037 9 312.549 10.44C313.061 11.864 313.453 12.896 313.725 13.536C314.013 14.176 314.285 14.84 314.541 15.528C314.765 14.776 315.149 13.32 315.693 11.16C316.237 8.984 316.549 7.744 316.629 7.44C316.693 7.088 317.045 6.912 317.685 6.912Z" fill="#326BFF"/>
</svg>
